<?xml version="1.0" encoding="utf-8"?>
<!-- Generator: Adobe Illustrator 16.0.0, SVG Export Plug-In . SVG Version: 6.00 Build 0)  -->
<!DOCTYPE svg PUBLIC "-//W3C//DTD SVG 1.1//EN" "http://www.w3.org/Graphics/SVG/1.1/DTD/svg11.dtd">
<svg version="1.1" id="Layer_1" xmlns="http://www.w3.org/2000/svg" xmlns:xlink="http://www.w3.org/1999/xlink" x="0px" y="0px"
	 width="100px" height="100px" viewBox="0 0 100 100" enable-background="new 0 0 100 100" xml:space="preserve">
<g>
	<g>
		<g>
			<path fill="#EB008B" d="M64.33,23.505c-0.061,0.011-0.135,0.006-0.213-0.028c-0.078-0.039-0.156-0.106-0.225-0.196
				c-0.27-0.359-0.461-1.021-0.695-1.824c-0.236-0.802-0.506-1.768-0.887-2.817c-0.09-0.264-0.191-0.533-0.299-0.803l-0.174-0.41
				c-0.055-0.14-0.123-0.292-0.201-0.432c-0.156-0.286-0.365-0.556-0.623-0.792c-0.252-0.23-0.566-0.415-0.893-0.533
				c-0.668-0.242-1.347-0.242-1.97-0.18c-0.622,0.073-1.195,0.219-1.733,0.37l-0.781,0.208c-0.24,0.067-0.499,0.124-0.689,0.124
				c-0.045,0-0.09,0-0.112-0.017c-0.022-0.005-0.022-0.005-0.028-0.017s-0.022-0.107-0.039-0.163
				c-0.022-0.062-0.045-0.118-0.067-0.174c-0.101-0.23-0.225-0.421-0.349-0.601c-0.258-0.348-0.516-0.628-0.752-0.864
				c-0.234-0.241-0.448-0.438-0.628-0.595c-0.354-0.314-0.562-0.466-0.562-0.466s0.191,0.185,0.5,0.527
				c0.156,0.174,0.348,0.387,0.555,0.651c0.209,0.252,0.438,0.555,0.652,0.903c0.1,0.174,0.201,0.359,0.269,0.561
				c0.022,0.045,0.034,0.101,0.045,0.146c0.017,0.056,0.011,0.084,0.034,0.185c0.033,0.101,0.117,0.202,0.207,0.242
				c0.09,0.045,0.174,0.056,0.247,0.067c0.298,0.017,0.55-0.034,0.813-0.084c0.264-0.056,0.527-0.118,0.797-0.18
				c0.539-0.123,1.1-0.235,1.673-0.286c0.583-0.05,1.179-0.034,1.724,0.163c0.543,0.196,0.971,0.589,1.244,1.072
				c0.074,0.118,0.131,0.236,0.197,0.37l0.174,0.393c0.117,0.27,0.225,0.527,0.332,0.78c0.42,1.016,0.758,1.953,1.055,2.739
				c0.15,0.393,0.291,0.752,0.438,1.055s0.291,0.561,0.461,0.741c0.09,0.084,0.18,0.151,0.268,0.18
				c0.096,0.034,0.18,0.022,0.236,0.011c0.123-0.034,0.174-0.079,0.174-0.079S64.449,23.494,64.33,23.505z"/>
			<path fill="#EB008B" d="M56.384,12.557c0.011,0.073,0.034,0.151,0.084,0.241c0.028,0.045,0.051,0.09,0.118,0.135
				c0.017,0.011,0.022,0.017,0.057,0.028l0.011,0.006c0.011,0.005,0.022,0.005,0.034,0.005c0.056,0.011,0.078,0.006,0.123,0
				c0.123-0.022,0.213-0.067,0.309-0.124c0.096-0.044,0.186-0.106,0.275-0.157c0.18-0.112,0.369-0.236,0.549-0.298
				c0.045-0.022,0.09-0.028,0.135-0.033l0.169-0.022c0.124-0.017,0.247-0.028,0.37-0.04c0.253-0.022,0.516-0.039,0.785-0.05
				c1.072-0.062,2.043-0.022,2.729,0.146c0.684,0.163,1.055,0.443,1.055,0.443s-0.066-0.095-0.219-0.235
				c-0.152-0.135-0.398-0.314-0.746-0.472c-0.686-0.314-1.723-0.505-2.852-0.443c-0.281,0.011-0.55,0.045-0.819,0.084
				c-0.129,0.017-0.258,0.039-0.382,0.067c-0.066,0.011-0.129,0.022-0.195,0.039c-0.079,0.022-0.152,0.05-0.214,0.084
				c-0.253,0.123-0.433,0.28-0.589,0.415c-0.084,0.073-0.158,0.14-0.23,0.196c-0.073,0.056-0.146,0.112-0.196,0.129
				c-0.006,0-0.022,0.005-0.011,0.005v0.006l-0.018-0.006c0.012,0.011,0,0,0,0c-0.017,0-0.039-0.011-0.062-0.039
				c-0.04-0.051-0.073-0.112-0.101-0.174c-0.063-0.124-0.102-0.241-0.135-0.331c-0.063-0.196-0.09-0.303-0.09-0.303
				s-0.006,0.112,0.006,0.32C56.339,12.282,56.35,12.411,56.384,12.557z"/>
			<path fill="#EB008B" d="M56.838,23.635c-0.583-0.275-1.061-0.646-1.38-0.96c-0.32-0.309-0.488-0.55-0.488-0.55
				c0-0.005,0.034,0.297,0.264,0.718c0.118,0.208,0.28,0.455,0.505,0.679c0.225,0.23,0.511,0.455,0.854,0.623
				c0.336,0.163,0.684,0.252,1.004,0.292c0.32,0.04,0.606,0.034,0.842,0.006c0.472-0.056,0.746-0.168,0.746-0.163
				c0-0.006-0.291-0.034-0.734-0.118C58.006,24.078,57.416,23.921,56.838,23.635z"/>
			<path fill="#EB008B" d="M54.207,35.936c-0.214,0.202-0.416,0.416-0.584,0.685c-0.152,0.258-0.292,0.521-0.41,0.802
				c-0.117,0.286-0.219,0.572-0.264,0.893c-0.012,0.157-0.018,0.331,0.039,0.505c0.051,0.185,0.197,0.354,0.377,0.432
				c0.027,0.011,0.039,0.017,0.055,0.022l0.068,0.022c0.045,0.017,0.09,0.022,0.129,0.028c0.084,0.011,0.174,0.011,0.252,0
				c0.163-0.017,0.309-0.067,0.443-0.124c0.264-0.118,0.494-0.275,0.702-0.443c0.202-0.174,0.393-0.37,0.527-0.6
				s0.225-0.472,0.247-0.724c0.012-0.129,0.012-0.258-0.045-0.393c-0.022-0.067-0.063-0.135-0.123-0.186
				c-0.057-0.056-0.135-0.084-0.214-0.095c-0.14-0.017-0.259,0.022-0.358,0.067c-0.057,0.022-0.102,0.045-0.146,0.073
				c-0.022,0.017-0.033,0.022-0.073,0.045l-0.062,0.04c-0.157,0.123-0.303,0.247-0.421,0.387c-0.118,0.135-0.219,0.292-0.225,0.477
				c0,0.045,0.006,0.101,0.017,0.129c0.012,0.045,0.028,0.079,0.045,0.118c0.033,0.067,0.09,0.135,0.168,0.168
				c0.079,0.022,0.158,0.017,0.214-0.005c0.067-0.028,0.118-0.056,0.157-0.096c0.18-0.135,0.264-0.292,0.309-0.393
				c0.045-0.112,0.039-0.174,0.039-0.168c0-0.006,0,0.056-0.056,0.157c-0.051,0.095-0.151,0.241-0.325,0.359
				c-0.084,0.045-0.203,0.101-0.298,0.051c-0.09-0.04-0.14-0.186-0.14-0.314c0.01-0.124,0.105-0.252,0.224-0.37
				c0.112-0.112,0.259-0.219,0.415-0.326l0.057-0.034c0.006-0.006,0.045-0.022,0.057-0.034c0.045-0.017,0.09-0.034,0.129-0.05
				c0.084-0.034,0.174-0.051,0.24-0.034c0.063,0.017,0.096,0.05,0.124,0.123c0.022,0.073,0.022,0.174,0.005,0.27
				c-0.027,0.196-0.111,0.404-0.229,0.589c-0.118,0.18-0.292,0.342-0.478,0.494c-0.189,0.146-0.403,0.275-0.628,0.371
				c-0.229,0.084-0.46,0.129-0.634,0.034c-0.079-0.034-0.129-0.095-0.158-0.191c-0.021-0.09-0.027-0.208-0.01-0.331
				c0.033-0.252,0.123-0.516,0.229-0.78c0.112-0.258,0.241-0.511,0.388-0.746c0.129-0.225,0.313-0.432,0.499-0.606
				c0.19-0.179,0.398-0.336,0.612-0.443c0.219-0.106,0.448-0.163,0.639-0.118c0.191,0.045,0.348,0.185,0.461,0.371
				c0.027,0.05,0.051,0.095,0.078,0.14c0.022,0.062,0.045,0.101,0.057,0.157c0.039,0.095,0.061,0.202,0.078,0.303
				c0.057,0.415-0.078,0.808-0.252,1.139c-0.175,0.325-0.388,0.6-0.59,0.825s-0.393,0.398-0.561,0.544
				c-0.32,0.292-0.518,0.427-0.518,0.427s0.214-0.112,0.563-0.371c0.174-0.129,0.381-0.297,0.605-0.511s0.471-0.471,0.685-0.813
				c0.202-0.337,0.394-0.775,0.349-1.269c-0.006-0.124-0.034-0.247-0.068-0.37c-0.017-0.067-0.045-0.129-0.066-0.18
				c-0.023-0.062-0.045-0.124-0.079-0.18c-0.067-0.118-0.146-0.236-0.259-0.337c-0.111-0.095-0.246-0.174-0.398-0.219
				c-0.309-0.079-0.623,0-0.881,0.118C54.666,35.571,54.431,35.746,54.207,35.936z"/>
			<path fill="#EB008B" d="M53.404,41.963c0.016,0.073,0.011,0.141,0.045,0.208c0.066,0.141,0.162,0.287,0.348,0.376
				c0.096,0.044,0.207,0.056,0.297,0.039c0.102-0.017,0.186-0.05,0.258-0.09c0.146-0.09,0.259-0.202,0.365-0.32
				c0.197-0.236,0.354-0.494,0.488-0.774c0.135-0.275,0.242-0.572,0.314-0.887c0.033-0.163,0.057-0.331,0.045-0.516
				c-0.006-0.09-0.022-0.191-0.072-0.303c-0.029-0.051-0.068-0.106-0.124-0.157c-0.051-0.05-0.13-0.079-0.196-0.095
				c-0.135-0.022-0.247,0-0.337,0.034c-0.096,0.028-0.169,0.067-0.247,0.112c-0.151,0.089-0.281,0.185-0.404,0.286
				c-0.056,0.056-0.123,0.106-0.18,0.163c-0.021,0.017-0.056,0.045-0.09,0.079c-0.027,0.028-0.056,0.062-0.084,0.095
				c-0.106,0.124-0.196,0.258-0.275,0.387c-0.162,0.27-0.291,0.539-0.393,0.819c-0.101,0.275-0.168,0.556-0.201,0.848
				c-0.029,0.286-0.018,0.595,0.135,0.87c0.072,0.135,0.19,0.247,0.324,0.326c0.135,0.067,0.27,0.106,0.404,0.112
				c0.293,0.022,0.551-0.09,0.741-0.236c0.196-0.146,0.337-0.325,0.46-0.5c0.247-0.342,0.393-0.69,0.517-0.999
				c0.112-0.309,0.196-0.578,0.259-0.797c0.111-0.443,0.14-0.696,0.14-0.696c0-0.005-0.056,0.247-0.208,0.673
				c-0.078,0.219-0.18,0.477-0.314,0.769c-0.14,0.292-0.314,0.617-0.561,0.926c-0.123,0.152-0.264,0.309-0.432,0.421
				c-0.169,0.112-0.371,0.18-0.567,0.157c-0.214-0.028-0.394-0.129-0.483-0.314c-0.089-0.174-0.1-0.427-0.066-0.674
				C53.331,42.193,53.375,42.082,53.404,41.963z M54.207,40.864c-0.113,0.034-0.259,0.14-0.365,0.336
				c0.017-0.022,0.027-0.056,0.051-0.084c0.123-0.18,0.28-0.331,0.454-0.421c0.084-0.045,0.174-0.062,0.229-0.051
				c0.063,0.017,0.102,0.062,0.124,0.146c0.011,0.022,0.011,0.034,0.011,0.062c0.006,0.028,0.012,0.045,0.012,0.062
				c0,0.034-0.012,0.079-0.018,0.118c-0.027,0.084-0.066,0.163-0.117,0.23c-0.09,0.14-0.213,0.264-0.336,0.342
				c-0.063,0.034-0.13,0.062-0.18,0.05c-0.068-0.017-0.124-0.045-0.164-0.084c-0.072-0.084-0.061-0.219-0.021-0.32
				c0.072-0.208,0.219-0.331,0.33-0.371c0.113-0.039,0.18-0.005,0.18-0.005S54.33,40.835,54.207,40.864z M54.207,40.409
				c0.016-0.017,0.045-0.04,0.078-0.067c0.051-0.051,0.106-0.096,0.162-0.141c0.113-0.095,0.23-0.179,0.348-0.247
				c0.063-0.04,0.119-0.062,0.175-0.079c0.05-0.022,0.101-0.028,0.118-0.022c0.016,0.005,0.011,0,0.027,0.028
				c0.018,0.034,0.033,0.084,0.033,0.146c0.012,0.124-0.011,0.264-0.039,0.404c-0.051,0.275-0.15,0.544-0.264,0.802
				c-0.123,0.252-0.258,0.5-0.42,0.702c-0.085,0.095-0.169,0.185-0.259,0.241c-0.095,0.056-0.163,0.073-0.229,0.045
				c-0.068-0.022-0.135-0.106-0.191-0.196c-0.045-0.096-0.067-0.197-0.072-0.303c0-0.163,0.061-0.326,0.145-0.477
				c-0.021,0.051-0.039,0.106-0.044,0.168c-0.006,0.067,0.011,0.151,0.062,0.219c0.045,0.067,0.123,0.107,0.207,0.129
				c0.096,0.028,0.191-0.006,0.27-0.04c0.163-0.079,0.298-0.208,0.422-0.359c0.056-0.084,0.111-0.168,0.146-0.27
				c0.022-0.056,0.034-0.112,0.045-0.174c0-0.034,0-0.067-0.006-0.09c-0.005-0.022-0.005-0.062-0.017-0.084
				c-0.012-0.067-0.033-0.124-0.073-0.191c-0.039-0.056-0.112-0.101-0.185-0.129c-0.146-0.045-0.287-0.005-0.404,0.045
				c-0.063,0.028-0.118,0.073-0.18,0.106c0.027-0.028,0.045-0.062,0.078-0.095C54.162,40.454,54.184,40.432,54.207,40.409z"/>
			<path fill="#EB008B" d="M57.248,42.183c0.146-0.051,0.27-0.118,0.387-0.191l0.084-0.056l0.079-0.062
				c0.056-0.045,0.101-0.084,0.151-0.129c0.388-0.342,0.701-0.735,0.938-1.139c0.236-0.404,0.404-0.842,0.416-1.285
				c0-0.106-0.006-0.213-0.023-0.32c-0.012-0.051-0.033-0.112-0.045-0.157c-0.016-0.045-0.033-0.095-0.057-0.146
				c-0.078-0.185-0.207-0.359-0.381-0.455c-0.186-0.101-0.381-0.101-0.539-0.073c-0.168,0.034-0.309,0.09-0.438,0.151
				c-0.246,0.129-0.438,0.275-0.584,0.398c-0.291,0.258-0.404,0.438-0.404,0.438s0.135-0.168,0.449-0.387
				c0.158-0.107,0.348-0.236,0.596-0.332c0.123-0.05,0.258-0.089,0.404-0.101c0.14-0.011,0.285,0.012,0.409,0.084
				c0.118,0.073,0.208,0.208,0.258,0.371c0.017,0.039,0.028,0.078,0.04,0.118c0.01,0.05,0.016,0.09,0.021,0.135
				c0.012,0.084,0.012,0.168,0.012,0.264c-0.033,0.365-0.202,0.752-0.438,1.117c-0.236,0.359-0.539,0.713-0.898,1.016
				c-0.174,0.146-0.37,0.287-0.566,0.348c-0.197,0.067-0.398,0.05-0.533-0.056c-0.141-0.112-0.213-0.32-0.219-0.539
				c-0.006-0.213,0.045-0.443,0.117-0.651c0.163-0.421,0.438-0.808,0.746-1.083c0.152-0.14,0.32-0.247,0.5-0.292
				c0.084-0.022,0.168-0.028,0.225-0.017c0.063,0.022,0.078,0.04,0.096,0.101c0.012,0.067,0.006,0.146-0.018,0.23
				c-0.021,0.09-0.05,0.168-0.09,0.247c-0.066,0.168-0.156,0.314-0.246,0.455c-0.09,0.146-0.186,0.27-0.281,0.381
				c-0.051,0.056-0.101,0.107-0.156,0.152c-0.023,0.022-0.051,0.039-0.079,0.05c-0.022,0.017-0.05,0.028-0.079,0.04
				c-0.117,0.039-0.225,0.034-0.264-0.062c-0.039-0.084-0.027-0.191-0.017-0.281c0.045-0.179,0.124-0.314,0.186-0.387
				c0.062-0.079,0.106-0.112,0.106-0.112s-0.045,0.022-0.117,0.095c-0.074,0.079-0.175,0.196-0.23,0.387
				c-0.028,0.09-0.057,0.208-0.018,0.337c0.023,0.067,0.084,0.135,0.163,0.151c0.079,0.028,0.157,0.011,0.225-0.006
				c0.034-0.005,0.079-0.022,0.112-0.033c0.039-0.022,0.067-0.04,0.102-0.062c0.066-0.045,0.123-0.095,0.185-0.151
				c0.118-0.107,0.229-0.236,0.331-0.376c0.107-0.141,0.213-0.292,0.303-0.466c0.045-0.084,0.09-0.18,0.124-0.286
				c0.028-0.096,0.056-0.213,0.045-0.348c-0.011-0.067-0.04-0.146-0.09-0.213c-0.056-0.067-0.124-0.112-0.196-0.129
				c-0.141-0.045-0.275-0.034-0.398-0.011c-0.236,0.05-0.461,0.18-0.651,0.337c-0.19,0.157-0.358,0.336-0.505,0.539
				s-0.281,0.415-0.382,0.668c-0.101,0.252-0.163,0.516-0.157,0.813c0,0.146,0.022,0.297,0.078,0.443
				c0.057,0.146,0.146,0.292,0.281,0.404c0.135,0.112,0.309,0.168,0.471,0.185C56.956,42.255,57.113,42.227,57.248,42.183z"/>
			<path fill="#EB008B" d="M55.486,45.477c0.09,0.04,0.19,0.051,0.285,0.04c0.096-0.011,0.186-0.051,0.253-0.096
				c0.146-0.095,0.235-0.208,0.304-0.32c0.078-0.118,0.123-0.23,0.168-0.348c0.078-0.23,0.117-0.46,0.129-0.668
				c0.012-0.225-0.039-0.438-0.135-0.606c-0.051-0.084-0.117-0.151-0.196-0.208c-0.073-0.05-0.174-0.079-0.264-0.05
				c-0.09,0.022-0.146,0.084-0.174,0.14c-0.034,0.062-0.045,0.112-0.056,0.163c-0.034,0.197-0.006,0.298-0.012,0.298
				c0,0.005,0.012-0.107,0.072-0.281c0.029-0.079,0.102-0.191,0.197-0.196c0.09-0.006,0.19,0.095,0.246,0.23
				c0.051,0.14,0.068,0.309,0.034,0.477c-0.034,0.185-0.084,0.381-0.169,0.572c-0.09,0.185-0.213,0.376-0.348,0.455
				c-0.072,0.04-0.117,0.04-0.18,0.017c-0.066-0.028-0.146-0.096-0.213-0.18c-0.112-0.146-0.18-0.371-0.202-0.595
				c-0.022-0.219-0.017-0.443,0.006-0.656c0.05-0.421,0.163-0.808,0.309-1.094c0.073-0.146,0.157-0.264,0.247-0.343
				c0.09-0.084,0.196-0.123,0.28-0.112c0.09,0.011,0.157,0.045,0.19,0.073c0.045,0.028,0.068,0.045,0.068,0.045
				s-0.012-0.022-0.051-0.062c-0.033-0.033-0.09-0.084-0.197-0.123c-0.095-0.028-0.24-0.011-0.364,0.067
				c-0.129,0.078-0.247,0.196-0.354,0.342c-0.202,0.292-0.382,0.685-0.478,1.15c-0.05,0.236-0.072,0.482-0.056,0.752
				c0.017,0.264,0.073,0.556,0.274,0.825C55.205,45.297,55.317,45.409,55.486,45.477z"/>
			<path fill="#EB008B" d="M56.973,44.102c0.018,0.034,0.028,0.051,0.051,0.09c0.033,0.067,0.078,0.124,0.129,0.185
				c0.096,0.118,0.219,0.225,0.371,0.287c0.15,0.067,0.314,0.078,0.465,0.062c0.298-0.039,0.533-0.168,0.741-0.309
				c0.208-0.146,0.382-0.309,0.55-0.477c0.314-0.342,0.578-0.696,0.752-1.078c0.168-0.37,0.293-0.741,0.338-1.094
				c0.045-0.348,0.01-0.668-0.045-0.937c-0.057-0.27-0.135-0.488-0.203-0.668c-0.129-0.359-0.213-0.55-0.213-0.55
				s0.057,0.202,0.156,0.566c0.041,0.186,0.096,0.41,0.131,0.674c0.027,0.264,0.033,0.561-0.035,0.881
				c-0.066,0.32-0.201,0.657-0.387,0.999c-0.168,0.331-0.438,0.657-0.752,0.959c-0.151,0.152-0.326,0.292-0.506,0.404
				c-0.179,0.118-0.381,0.213-0.572,0.23c-0.19,0.017-0.348-0.05-0.471-0.213c-0.033-0.039-0.067-0.084-0.084-0.129
				c-0.018-0.017-0.028-0.056-0.039-0.073c-0.018-0.022-0.023-0.045-0.034-0.067c-0.034-0.096-0.056-0.191-0.051-0.298
				c0-0.213,0.079-0.426,0.186-0.634c0.112-0.197,0.258-0.382,0.415-0.544s0.331-0.309,0.517-0.416
				c0.089-0.056,0.179-0.101,0.269-0.129c0.012-0.006,0.018-0.006,0.034-0.006l0.022-0.005c-0.012,0,0,0,0,0
				c0.033-0.006,0.057-0.011,0.078-0.017c0.045,0,0.09,0,0.124,0c0.039,0.011,0.067,0.022,0.079,0.028
				c0.016,0.011,0.021,0.022,0.033,0.045c0.021,0.05,0.012,0.146-0.012,0.236c-0.045,0.179-0.123,0.359-0.213,0.527
				c-0.102,0.168-0.202,0.326-0.303,0.466c-0.057,0.073-0.112,0.14-0.168,0.196c-0.057,0.045-0.13,0.101-0.191,0.146
				c-0.067,0.045-0.135,0.084-0.196,0.112c-0.062,0.022-0.13,0.034-0.151,0.017c-0.034-0.011-0.063-0.056-0.068-0.123
				c-0.011-0.062-0.011-0.124-0.005-0.186c0.028-0.258,0.118-0.471,0.202-0.64c0.09-0.163,0.186-0.286,0.286-0.292
				c0.045-0.005,0.079,0.017,0.101,0.034c0.012,0.017,0.023,0.034,0.023,0.034s-0.006-0.017-0.023-0.039
				c-0.017-0.017-0.045-0.045-0.101-0.045c-0.112,0-0.235,0.118-0.337,0.275c-0.112,0.157-0.225,0.371-0.28,0.651
				c-0.011,0.067-0.022,0.146-0.022,0.225c0.012,0.079,0.033,0.191,0.135,0.252c0.111,0.062,0.219,0.04,0.303,0.017
				c0.09-0.034,0.168-0.073,0.247-0.118s0.146-0.09,0.235-0.151c0.073-0.067,0.135-0.135,0.202-0.202
				c0.124-0.146,0.241-0.309,0.358-0.482c0.102-0.174,0.215-0.365,0.281-0.595c0.029-0.118,0.057-0.242,0.023-0.404
				c-0.023-0.084-0.068-0.168-0.146-0.23c-0.078-0.056-0.158-0.084-0.23-0.096c-0.072-0.017-0.141-0.017-0.207-0.011
				c-0.034,0.006-0.068,0.006-0.102,0.006c-0.012,0-0.006,0-0.033,0.005l-0.023,0.006l-0.05,0.011
				c-0.135,0.034-0.253,0.09-0.364,0.151c-0.225,0.124-0.428,0.281-0.612,0.466s-0.354,0.387-0.488,0.628
				c-0.135,0.236-0.235,0.517-0.247,0.819c0,0.157,0.022,0.314,0.078,0.46C56.939,44.029,56.956,44.068,56.973,44.102z"/>
			<path fill="#EB008B" d="M61.648,38.36c0.021-0.28,0.051-0.589,0.045-0.931c-0.006-0.337-0.012-0.702-0.164-1.095
				c-0.039-0.095-0.084-0.196-0.162-0.292c-0.078-0.096-0.197-0.18-0.33-0.219c-0.135-0.04-0.275-0.034-0.389,0
				c-0.033,0.005-0.055,0.017-0.09,0.028l-0.045,0.011c-0.006,0.005-0.033,0.011-0.045,0.022c-0.066,0.028-0.123,0.067-0.174,0.112
				c-0.162,0.146-0.246,0.32-0.32,0.494c-0.021-0.168-0.066-0.331-0.145-0.477c-0.09-0.174-0.225-0.331-0.377-0.466
				c-0.309-0.258-0.713-0.415-1.145-0.421c-0.219,0-0.432,0.04-0.635,0.146c-0.05,0.017-0.1,0.051-0.145,0.079
				c-0.045,0.028-0.102,0.079-0.124,0.106l-0.04,0.028l-0.027,0.034c-0.018,0.017-0.033,0.039-0.051,0.056
				c-0.033,0.039-0.062,0.084-0.096,0.129c-0.111,0.174-0.19,0.404-0.146,0.64c0.045,0.225,0.185,0.41,0.349,0.522
				c0.324,0.23,0.729,0.252,1.037,0.118c0.084-0.034,0.152-0.073,0.219-0.124c0.057-0.045,0.124-0.101,0.169-0.163
				c0.051-0.062,0.101-0.134,0.118-0.224c0.021-0.09,0.011-0.191-0.028-0.264c-0.095-0.146-0.229-0.202-0.349-0.235
				c-0.111-0.04-0.224-0.045-0.336-0.045c-0.202,0.005-0.382,0.067-0.506,0.146c-0.123,0.067-0.201,0.151-0.246,0.208
				c-0.018,0.022-0.012,0.022-0.022,0.039c-0.011-0.017-0.022-0.022-0.028-0.039c-0.017-0.118,0.028-0.241,0.107-0.359
				c0.156-0.247,0.448-0.381,0.779-0.376c0.32,0,0.645,0.124,0.893,0.314c0.123,0.095,0.225,0.208,0.297,0.337
				c0.074,0.123,0.129,0.269,0.152,0.398c0.045,0.269-0.078,0.51-0.27,0.69c-0.197,0.18-0.438,0.297-0.662,0.382
				c-0.443,0.18-0.854,0.202-1.123,0.208c-0.275,0-0.426-0.028-0.426-0.028s0.146,0.056,0.426,0.095
				c0.068,0.011,0.146,0.011,0.23,0.017c0.084,0.006,0.174,0.017,0.275,0.011c0.207-0.005,0.438-0.039,0.684-0.101
				c0.248-0.067,0.518-0.168,0.775-0.365c0.078-0.062,0.146-0.157,0.213-0.253v0.011c-0.057,0.443-0.051,0.887,0.033,1.308
				c0.045,0.213,0.113,0.427,0.236,0.623c0.033,0.05,0.072,0.101,0.117,0.146c0.018,0.017,0.063,0.056,0.074,0.062l0.016,0.011
				l0.018,0.006v0.005l0.012,0.006c0.01,0.011,0.021,0.017,0.039,0.022c0.055,0.028,0.117,0.056,0.186,0.067
				c0.078,0.017,0.156,0.011,0.234-0.017c0.158-0.062,0.23-0.185,0.281-0.281c0.045-0.101,0.072-0.196,0.09-0.297
				c0.039-0.185,0.045-0.37,0.045-0.539c-0.006-0.342-0.045-0.662-0.152-0.948c-0.061-0.146-0.15-0.264-0.264-0.354
				c-0.111-0.101-0.27-0.146-0.404-0.101c-0.033,0.011-0.055,0.034-0.084,0.05c0.023-0.095,0.033-0.202,0.068-0.297
				c0.061-0.174,0.141-0.348,0.246-0.443c0.029-0.022,0.051-0.04,0.074-0.05c0.01-0.006,0.01-0.006,0.021-0.017l0.033-0.005
				c0.012-0.012,0.033-0.017,0.051-0.022c0.072-0.022,0.141-0.022,0.191-0.011c0.105,0.017,0.207,0.134,0.275,0.28
				c0.129,0.303,0.168,0.657,0.201,0.971c0.023,0.325,0.027,0.628,0.023,0.909c-0.012,1.117-0.096,1.818-0.09,1.818
				C61.34,40.167,61.523,39.489,61.648,38.36z M57.753,36.133c0.124-0.056,0.286-0.084,0.472-0.067
				c0.09,0.005,0.191,0.028,0.281,0.067c0.089,0.034,0.185,0.101,0.213,0.174c0.027,0.067,0,0.14-0.084,0.225
				c-0.04,0.039-0.085,0.079-0.141,0.112c-0.045,0.033-0.102,0.056-0.163,0.073c-0.229,0.084-0.522,0.039-0.724-0.129
				c-0.09-0.067-0.129-0.163-0.157-0.253C57.495,36.284,57.574,36.206,57.753,36.133z M60.369,37.109
				c0.18-0.039,0.357,0.174,0.438,0.404c0.066,0.247,0.078,0.556,0.066,0.87c-0.012,0.157-0.033,0.314-0.078,0.477
				c-0.018,0.073-0.045,0.146-0.078,0.213c-0.035,0.062-0.078,0.096-0.102,0.101c-0.018,0-0.057,0-0.117-0.039
				c-0.006,0-0.018-0.006-0.023-0.011l-0.006-0.006l0,0l-0.01-0.005c-0.023-0.022-0.012-0.017-0.035-0.034
				c-0.021-0.022-0.045-0.051-0.055-0.09c-0.086-0.129-0.135-0.309-0.17-0.488c-0.061-0.371-0.066-0.78-0.01-1.184
				c0.006-0.028,0.01-0.056,0.021-0.084C60.256,37.176,60.301,37.126,60.369,37.109z"/>
			<path fill="#EB008B" d="M62.703,43.338c-0.135,0.252-0.303,0.528-0.506,0.792c0.102-0.186,0.186-0.382,0.236-0.589
				c0.129-0.421,0.129-0.87,0.006-1.257l-0.174-0.55l-0.158,0.539c-0.324,1.05-0.83,1.863-1.291,2.335
				c-0.471,0.477-0.852,0.623-0.846,0.634c0,0,0.094-0.034,0.264-0.106c0.168-0.079,0.404-0.208,0.672-0.426
				c0.398-0.326,0.842-0.864,1.201-1.566c-0.021,0.095-0.021,0.191-0.055,0.286c-0.113,0.359-0.309,0.707-0.563,1.033
				c-0.24,0.309-0.516,0.578-0.809,0.808l0.176,0.354c0.027-0.005,0.039-0.028,0.066-0.034l0,0l0,0
				c0.557-0.185,0.994-0.55,1.297-0.937c0.078-0.107,0.135-0.208,0.201-0.309c-0.066,0.157-0.135,0.326-0.189,0.443
				c-0.18,0.314-0.299,0.477-0.299,0.477s0.141-0.14,0.354-0.443c0.203-0.292,0.479-0.741,0.629-1.369c0-0.005,0-0.011,0-0.011
				v-0.005c0-0.006,0.006-0.017,0.012-0.028L62.703,43.338z"/>
			<path fill="#EB008B" d="M62.545,24.353c0.203-0.168,0.344-0.236,0.338-0.236c0,0-0.146,0.028-0.387,0.168
				c-0.242,0.129-0.568,0.382-0.898,0.747c-0.668,0.735-1.387,1.914-1.914,3.316c-0.527,1.403-0.764,2.761-0.77,3.749
				c-0.005,0.494,0.045,0.892,0.107,1.162s0.123,0.404,0.123,0.404s-0.027-0.146-0.033-0.415c-0.012-0.27,0.012-0.657,0.084-1.128
				c0.146-0.943,0.5-2.217,1.016-3.575c0.506-1.358,1.072-2.553,1.605-3.339C62.086,24.813,62.344,24.527,62.545,24.353z"/>
			<path fill="#EB008B" d="M60.727,46.599c0,0,0.125,0.791,0.236,2.082c0.113,1.285,0.168,3.064,0.123,5.023
				c-0.033,1.964-0.145,3.743-0.225,5.034l-0.135,2.099c0,0,0.191-0.786,0.416-2.065s0.471-3.064,0.506-5.057
				c0.045-1.986-0.158-3.794-0.41-5.073S60.723,46.599,60.727,46.599z"/>
			<path fill="#EB008B" d="M58.063,47.042c-0.455,0.365-0.904,0.937-1.275,1.678c-0.369,0.735-0.662,1.644-0.875,2.655
				c-0.201,1.021-0.325,2.155-0.32,3.378c0.006,0.612,0.04,1.252,0.146,1.897c0.096,0.646,0.225,1.296,0.365,1.97
				c0.28,1.336,0.634,2.722,0.808,4.175c0.045,0.365,0.079,0.735,0.096,1.101c0.005,0.185,0.011,0.376,0.011,0.561
				c0,0.191-0.006,0.376-0.011,0.567c-0.017,0.758-0.085,1.521-0.214,2.289c-0.072,0.461-0.18,0.909-0.297,1.348
				c-0.342-0.954-0.707-1.92-1.089-2.913c-1.032-2.644-1.813-5.253-2.155-7.688c-0.09-0.605-0.151-1.206-0.19-1.784
				c-0.017-0.292-0.034-0.578-0.04-0.858c-0.005-0.281-0.011-0.556,0.006-0.825c0.057-1.089,0.248-2.1,0.472-2.997
				c0.235-0.898,0.517-1.7,0.837-2.362c0.324-0.663,0.689-1.196,1.071-1.538c0.388-0.359,0.78-0.505,1.056-0.544
				c0.27-0.039,0.414-0.005,0.409-0.011c0,0.006-0.14-0.034-0.421-0.005c-0.27,0.028-0.685,0.157-1.089,0.505
				c-0.403,0.342-0.797,0.87-1.146,1.532c-0.348,0.663-0.662,1.465-0.92,2.368c-0.258,0.909-0.471,1.926-0.561,3.031
				c-0.023,0.274-0.028,0.566-0.023,0.853c0,0.286,0.006,0.578,0.023,0.87c0.021,0.595,0.078,1.201,0.156,1.818
				c0.309,2.475,1.066,5.129,2.111,7.801c0.454,1.173,0.908,2.312,1.29,3.435c-0.259,0.78-0.567,1.532-0.932,2.239
				c-0.337,0.65-0.707,1.273-1.083,1.874c-0.186,0.303-0.376,0.59-0.572,0.893c-0.191,0.297-0.365,0.595-0.545,0.897
				c-0.673,1.195-1.189,2.396-1.56,3.564c-0.376,1.161-0.606,2.278-0.753,3.305c-0.285,2.055-0.201,3.743-0.145,4.889l0.033,1.784
				l0.033-1.784c-0.021-1.156-0.045-2.829,0.292-4.86c0.169-1.01,0.421-2.104,0.819-3.244c0.382-1.139,0.915-2.312,1.605-3.479
				c0.162-0.286,0.348-0.577,0.539-0.869c0.185-0.281,0.387-0.584,0.583-0.881c0.388-0.606,0.769-1.235,1.116-1.897
				c0.298-0.562,0.557-1.156,0.781-1.773c0.381,1.201,0.662,2.396,0.763,3.547c0.112,1.218,0.067,2.391-0.05,3.474
				c-0.119,1.089-0.31,2.094-0.522,2.997c-0.427,1.818-0.921,3.255-1.269,4.243c-0.348,0.987-0.561,1.526-0.561,1.526
				s0.234-0.528,0.628-1.499c0.382-0.977,0.926-2.396,1.409-4.215c0.24-0.908,0.465-1.919,0.605-3.013
				c0.146-1.101,0.213-2.29,0.117-3.547c-0.089-1.246-0.375-2.543-0.779-3.839c-0.039-0.106-0.084-0.213-0.117-0.32
				c0.207-0.64,0.381-1.296,0.482-1.976c0.135-0.785,0.201-1.571,0.219-2.346c0.006-0.196,0.006-0.387,0.006-0.578
				c0-0.196,0-0.381-0.012-0.577c-0.022-0.382-0.057-0.758-0.102-1.134c-0.195-1.493-0.566-2.879-0.863-4.204
				c-0.304-1.33-0.567-2.587-0.572-3.788c-0.034-1.206,0.066-2.323,0.234-3.333c0.18-1.011,0.443-1.902,0.786-2.644
				c0.337-0.735,0.763-1.308,1.19-1.678c0.438-0.382,0.863-0.55,1.156-0.629c0.291-0.078,0.449-0.084,0.449-0.084
				s-0.158,0-0.461,0.067C58.953,46.526,58.516,46.672,58.063,47.042z"/>
		</g>
	</g>
	<g>
		<g>
			<path fill="#90278E" d="M49.038,20.531c0.32,0.421,0.713,0.741,1.094,0.965c0.394,0.219,0.774,0.348,1.111,0.426
				c0.349,0.073,0.646,0.096,0.887,0.101c0.488,0.011,0.752-0.056,0.752-0.05c0-0.006-0.27,0.022-0.741-0.04
				c-0.471-0.062-1.167-0.208-1.852-0.679c-0.348-0.23-0.673-0.55-0.943-0.949c-0.269-0.398-0.482-0.875-0.623-1.403
				c-0.286-1.061-0.297-2.301-0.168-3.581c0.017-0.157,0.039-0.314,0.062-0.471l0.022-0.236l0.011-0.056l0.011-0.04
				c0.011-0.033,0.011-0.062,0.022-0.101c0.079-0.242,0.241-0.455,0.449-0.629c0.426-0.348,0.976-0.556,1.503-0.712
				c0.533-0.146,1.055-0.247,1.549-0.32l0.371-0.056c0.123-0.011,0.252-0.04,0.37-0.067c0.241-0.056,0.466-0.146,0.662-0.252
				c0.404-0.213,0.707-0.5,0.921-0.775c0.213-0.286,0.348-0.555,0.438-0.78c0.18-0.455,0.225-0.718,0.235-0.713
				c-0.011-0.005-0.089,0.252-0.313,0.673c-0.113,0.208-0.27,0.455-0.494,0.702c-0.225,0.241-0.527,0.477-0.904,0.64
				c-0.185,0.079-0.393,0.141-0.611,0.18c-0.112,0.022-0.219,0.028-0.336,0.04l-0.377,0.022c-0.51,0.045-1.055,0.118-1.621,0.247
				c-0.292,0.073-0.584,0.157-0.876,0.27c-0.292,0.124-0.583,0.27-0.853,0.488c-0.27,0.213-0.517,0.505-0.64,0.875
				c-0.011,0.045-0.022,0.09-0.04,0.14l-0.017,0.073l-0.011,0.062l-0.034,0.247c-0.022,0.163-0.045,0.331-0.056,0.494
				c-0.141,1.33-0.09,2.638,0.27,3.771C48.448,19.6,48.707,20.116,49.038,20.531z"/>
			<path fill="#90278E" d="M51.502,29.909c-0.012,0.337-0.034,0.657-0.079,0.938c-0.085,0.488-0.19,0.881-0.259,1.162
				c-0.033,0.135-0.056,0.241-0.066,0.32c-0.012,0.073-0.006,0.112-0.006,0.112s0.006-0.04,0.027-0.106
				c0.023-0.073,0.068-0.174,0.124-0.298c0.118-0.258,0.298-0.628,0.448-1.122c0.158-0.494,0.281-1.111,0.248-1.813
				c-0.028-0.696-0.242-1.47-0.662-2.161c-0.383-0.645-0.686-1.291-0.91-1.896c-0.225-0.612-0.359-1.184-0.426-1.672
				c-0.135-0.982,0-1.611,0-1.605c0-0.005-0.281,0.584-0.281,1.622c0,0.516,0.073,1.139,0.258,1.796
				c0.179,0.662,0.471,1.364,0.876,2.037c0.381,0.634,0.594,1.296,0.673,1.919c0.022,0.202,0.022,0.381,0.022,0.572
				c-0.045,0.157-0.102,0.32-0.186,0.494c-0.309,0.679-0.903,1.392-1.723,2.054c-0.819,0.679-1.785,1.448-2.604,2.537
				c-0.836,1.072-1.504,2.441-1.919,3.984c-0.415,1.549-0.595,3.255-0.606,5.04c-0.017,3.58,0.628,7.475,1.6,11.46
				c0.241,0.993,0.511,1.98,0.774,2.929c0.252,0.96,0.466,1.908,0.651,2.852c0.365,1.88,0.589,3.715,0.69,5.477
				c0.213,3.52-0.09,6.707-0.595,9.327c-0.505,2.621-1.212,4.681-1.79,6.062c-0.578,1.386-1.027,2.088-1.038,2.076
				c0.011,0.012,0.494-0.673,1.122-2.043c0.623-1.363,1.403-3.406,1.987-6.038c0.583-2.627,0.959-5.837,0.803-9.406
				c-0.073-1.778-0.281-3.647-0.634-5.556c-0.18-0.954-0.393-1.925-0.646-2.896c-0.264-0.965-0.522-1.931-0.763-2.924
				c-0.971-3.951-1.633-7.801-1.678-11.319c-0.011-1.757,0.135-3.429,0.505-4.939c0.37-1.509,0.988-2.845,1.762-3.917
				c0.774-1.078,1.695-1.863,2.492-2.565c0.819-0.701,1.403-1.453,1.694-2.155C51.434,30.128,51.468,30.021,51.502,29.909z"/>
			<path fill="#90278E" d="M33.279,61.235c0.309,0.118,0.566,0.112,0.735,0.123c0.084,0.006,0.146,0.012,0.18,0.034
				c0.045,0.017,0.056,0.033,0.056,0.033s-0.011-0.022-0.045-0.039c-0.045-0.022-0.106-0.039-0.191-0.051
				c-0.168-0.027-0.415-0.05-0.701-0.185c-0.287-0.13-0.573-0.394-0.786-0.78c-0.216-0.382-0.37-0.876-0.474-1.426
				c-0.053-0.274-0.095-0.566-0.126-0.875c-0.037-0.304-0.048-0.623-0.082-0.971c-0.062-0.674-0.166-1.393-0.306-2.145
				c-0.281-1.492-0.685-3.126-1.308-4.781c-0.126-0.331-0.27-0.651-0.416-0.965c0.115,0.045,0.225,0.095,0.362,0.14
				c0.46,0.151,1.044,0.281,1.74,0.275c0.693,0,1.49-0.146,2.292-0.5c0.803-0.336,1.611-0.875,2.374-1.56s1.493-1.51,2.167-2.436
				c1.358-1.852,2.531-4.097,3.513-6.538c0.488-1.224,0.909-2.441,1.257-3.631c0.084-0.303,0.168-0.595,0.247-0.893
				s0.146-0.578,0.23-0.864c0.163-0.567,0.331-1.117,0.511-1.65c0.718-2.138,1.549-4.001,2.318-5.534
				c1.543-3.053,2.823-4.764,2.817-4.764c0.006,0-1.386,1.627-3.064,4.641c-0.836,1.504-1.745,3.35-2.52,5.5
				c-0.19,0.533-0.376,1.089-0.55,1.667c-0.09,0.28-0.168,0.578-0.247,0.87c-0.084,0.286-0.168,0.572-0.258,0.87
				c-0.359,1.173-0.786,2.368-1.263,3.58c-0.971,2.408-2.093,4.63-3.373,6.471c-0.64,0.92-1.324,1.746-2.042,2.43
				c-0.719,0.685-1.476,1.229-2.234,1.594c-0.757,0.365-1.512,0.539-2.18,0.573c-0.671,0.033-1.251-0.062-1.709-0.186
				c-0.163-0.039-0.292-0.09-0.421-0.141c-0.028-0.05-0.05-0.106-0.073-0.162c-0.104-0.197-0.208-0.393-0.329-0.578
				c-0.123-0.186-0.25-0.371-0.44-0.539c-0.098-0.084-0.213-0.163-0.381-0.208c-0.087-0.017-0.188-0.017-0.281,0.006
				c-0.093,0.028-0.171,0.079-0.233,0.123c-0.121,0.107-0.183,0.225-0.239,0.326c-0.053,0.106-0.089,0.208-0.126,0.314
				c-0.121,0.41-0.18,0.808-0.196,1.212c-0.037,0.791,0.146,1.543,0.421,2.184c0.275,0.634,0.631,1.173,0.979,1.639
				c0.351,0.454,0.693,0.847,0.991,1.189c0.303,0.343,0.558,0.634,0.755,0.887c0.193,0.253,0.325,0.466,0.398,0.611
				c0.073,0.151,0.095,0.241,0.095,0.241s-0.014-0.09-0.073-0.246c-0.062-0.163-0.174-0.388-0.351-0.657
				c-0.342-0.544-0.954-1.251-1.588-2.188c-0.312-0.477-0.623-1.01-0.85-1.622c-0.228-0.605-0.359-1.296-0.306-2.015
				c0.028-0.354,0.095-0.729,0.21-1.072c0.028-0.084,0.062-0.168,0.098-0.241c0.042-0.067,0.084-0.129,0.121-0.157
				c0.037-0.022,0.028-0.017,0.056-0.017c0.028,0.012,0.087,0.045,0.143,0.096c0.118,0.112,0.233,0.264,0.334,0.432
				c0.028,0.039,0.048,0.09,0.076,0.135c-0.101-0.051-0.171-0.084-0.171-0.084s0.07,0.045,0.18,0.101
				c0.07,0.124,0.14,0.247,0.208,0.376c0.18,0.37,0.345,0.763,0.5,1.161c0.606,1.616,1.035,3.216,1.366,4.681
				c0.163,0.735,0.295,1.437,0.39,2.093c0.048,0.326,0.076,0.657,0.129,0.972c0.047,0.309,0.109,0.611,0.182,0.892
				c0.146,0.567,0.337,1.062,0.598,1.454C32.634,60.859,32.97,61.123,33.279,61.235z"/>
			<path fill="#90278E" d="M34.374,62.509c0.292-0.319,0.561-0.74,0.797-1.223c0.247-0.488,0.466-1.039,0.673-1.634
				c0.202-0.601,0.382-1.257,0.572-1.931c0.393-1.347,0.864-2.822,1.415-4.338c0.561-1.515,1.167-2.935,1.818-4.175
				c0.64-1.241,1.324-2.301,1.936-3.171c0.617-0.87,1.139-1.555,1.487-2.043c0.342-0.488,0.516-0.774,0.516-0.774
				s-0.202,0.27-0.589,0.724c-0.387,0.455-0.959,1.095-1.639,1.925s-1.431,1.875-2.127,3.115c-0.707,1.234-1.358,2.665-1.925,4.209
				c-0.567,1.532-1.004,3.036-1.347,4.405c-0.174,0.69-0.314,1.336-0.488,1.937c-0.168,0.595-0.354,1.145-0.555,1.633
				c-0.208,0.482-0.427,0.903-0.679,1.234c-0.252,0.325-0.539,0.545-0.808,0.646c-0.135,0.045-0.258,0.073-0.365,0.084
				c-0.062-0.022-0.124-0.056-0.196-0.067c-0.073-0.006-0.18-0.011-0.258,0.062c-0.031,0.022-0.042,0.045-0.056,0.073
				c-0.011,0.006-0.031,0.012-0.031,0.012s0.017,0,0.025-0.006c-0.025,0.056-0.039,0.106-0.039,0.151
				c0,0.141,0.037,0.241,0.07,0.343c0.031,0.095,0.076,0.18,0.109,0.252c0.146,0.304,0.247,0.449,0.247,0.449
				s-0.079-0.168-0.168-0.477c-0.022-0.073-0.045-0.163-0.067-0.259c-0.011-0.096-0.028-0.202-0.017-0.292
				c0.006-0.05,0.028-0.084,0.045-0.09c0.017-0.011,0.051-0.011,0.101,0.006c0.101,0.028,0.219,0.096,0.331,0.168
				c0.056,0.04,0.124,0.09,0.163,0.124c0.039,0.045,0.084,0.096,0.129,0.151c0.079,0.118,0.146,0.258,0.213,0.404
				c0.123,0.303,0.224,0.646,0.325,1.016c0.202,0.735,0.393,1.565,0.651,2.425c0.264,0.858,0.583,1.666,0.965,2.362
				c0.382,0.696,0.831,1.269,1.291,1.655c0.46,0.398,0.909,0.606,1.223,0.713c0.314,0.106,0.494,0.124,0.494,0.129
				c0-0.005-0.174-0.062-0.46-0.207c-0.292-0.152-0.679-0.416-1.061-0.831c-0.387-0.421-0.752-0.987-1.066-1.672
				c-0.32-0.686-0.589-1.471-0.847-2.318c-0.258-0.836-0.483-1.661-0.741-2.396c-0.124-0.37-0.258-0.718-0.432-1.038
				c-0.084-0.157-0.18-0.309-0.297-0.443c-0.056-0.073-0.124-0.135-0.191-0.185c-0.084-0.063-0.146-0.09-0.213-0.13
				c-0.045-0.017-0.095-0.027-0.135-0.045c0.09-0.005,0.174-0.011,0.281-0.039C33.75,63.048,34.082,62.835,34.374,62.509z"/>
			<path fill="#90278E" d="M46.804,73.991c0.393-1.51,0.533-2.767,0.556-3.631c0.028-0.87-0.034-1.347-0.028-1.347
				c-0.005,0,0.017,0.482-0.084,1.341c-0.09,0.854-0.314,2.082-0.786,3.541c-0.472,1.454-1.179,3.148-2.189,4.889
				c-0.511,0.87-1.094,1.751-1.773,2.604c-0.685,0.854-1.459,1.679-2.362,2.368c-0.225,0.169-0.455,0.331-0.69,0.472
				c-0.258,0.163-0.483,0.309-0.729,0.443c-0.483,0.27-0.982,0.505-1.482,0.69c-0.505,0.18-1.01,0.309-1.504,0.354
				c-0.494,0.051-0.982,0.011-1.414-0.141c-0.432-0.146-0.803-0.415-1.089-0.746c-0.292-0.343-0.494-0.724-0.665-1.14
				c-0.168-0.403-0.297-0.808-0.348-1.2c-0.054-0.388-0.017-0.77,0.154-1.05c0.171-0.275,0.477-0.433,0.797-0.478
				s0.634,0,0.909,0.09s0.516,0.23,0.69,0.404c0.18,0.169,0.286,0.382,0.292,0.584c0,0.202-0.079,0.376-0.168,0.517
				c-0.09,0.129-0.191,0.229-0.269,0.309c-0.168,0.146-0.27,0.207-0.27,0.207s0.106-0.05,0.292-0.185
				c0.089-0.073,0.202-0.163,0.303-0.298s0.213-0.314,0.225-0.55c0.011-0.23-0.09-0.494-0.281-0.701
				c-0.18-0.208-0.438-0.377-0.735-0.5c-0.298-0.118-0.646-0.196-1.021-0.163c-0.191,0.012-0.387,0.063-0.57,0.146
				c-0.188,0.095-0.362,0.235-0.491,0.421c-0.261,0.37-0.317,0.842-0.281,1.291c0.034,0.448,0.154,0.892,0.314,1.335
				c0.155,0.433,0.371,0.898,0.696,1.308c0.325,0.416,0.774,0.77,1.302,0.971c0.527,0.202,1.111,0.259,1.684,0.22
				c0.567-0.04,1.128-0.175,1.672-0.365c0.55-0.186,1.083-0.427,1.6-0.713c0.258-0.135,0.522-0.297,0.757-0.443
				c0.264-0.162,0.517-0.337,0.752-0.521c0.976-0.741,1.779-1.616,2.469-2.509c0.69-0.898,1.268-1.824,1.762-2.733
				C45.777,77.258,46.417,75.495,46.804,73.991z"/>
		</g>
	</g>
</g>
</svg>
