<?xml version="1.0" encoding="utf-8"?>
<!-- Generator: Adobe Illustrator 16.0.0, SVG Export Plug-In . SVG Version: 6.00 Build 0)  -->
<!DOCTYPE svg PUBLIC "-//W3C//DTD SVG 1.1//EN" "http://www.w3.org/Graphics/SVG/1.1/DTD/svg11.dtd">
<svg version="1.1" id="Layer_1" xmlns="http://www.w3.org/2000/svg" xmlns:xlink="http://www.w3.org/1999/xlink" x="0px" y="0px"
	 width="100px" height="100px" viewBox="0 0 100 100" enable-background="new 0 0 100 100" xml:space="preserve">
<g>
	<path fill="#D0D2D3" d="M83.6,57.441c5.643,1.469,9.123,3.459,9.123,5.664c0,4.49-14.479,8.135-32.329,8.135
		s-32.321-3.645-32.321-8.135c0-2.205,3.479-4.195,9.122-5.664c-7.94,1.676-12.996,4.182-12.996,6.988
		c0,5.041,16.211,9.115,36.195,9.115c19.991,0,36.195-4.074,36.195-9.115C96.589,61.623,91.534,59.117,83.6,57.441z"/>
	<radialGradient id="SVGID_1_" cx="36.8652" cy="39.9087" r="27.9918" gradientUnits="userSpaceOnUse">
		<stop  offset="0" style="stop-color:#00ADEE"/>
		<stop  offset="0.7273" style="stop-color:#2E3191"/>
		<stop  offset="1" style="stop-color:#140958"/>
	</radialGradient>
	<path fill="url(#SVGID_1_)" d="M5.052,44.289c1.002-1.689,2.27-3.179,3.724-4.518c1.46-1.339,3.107-2.513,4.926-3.487
		c0.916-0.479,1.876-0.902,2.871-1.282c1.003-0.364,2.041-0.65,3.115-0.88c1.075-0.229,2.177-0.344,3.301-0.408
		c1.124-0.051,2.27-0.029,3.401,0.107s2.263,0.344,3.373,0.637c1.11,0.309,2.184,0.702,3.229,1.146
		c2.105,0.882,4.003,2.113,5.757,3.431c1.732,1.339,3.265,2.85,4.668,4.41c1.346,1.555,2.642,3.38,3.551,4.647
		c0.931,1.347,1.955,2.67,2.95,3.93c0.974,1.289,2.033,2.471,3.05,3.617c1.031,1.131,2.099,2.154,3.15,3.064
		c1.089,0.887,2.148,1.66,3.229,2.213c1.082,0.572,2.163,0.924,3.373,1.08c1.21,0.15,2.577,0.057,4.024-0.336
		c1.46-0.365,2.985-1.031,4.524-1.826c1.533-0.809,3.101-1.754,4.711-2.756l0.546,0.428c-2.207,2.857-4.74,5.58-7.964,7.441
		c-1.617,0.914-3.407,1.566-5.27,1.797c-1.861,0.234-3.78,0.035-5.563-0.502c-3.603-1.088-6.652-3.344-9.302-5.828
		c-2.664-2.506-4.984-5.313-7.131-8.242c-1.06-1.482-2.034-2.942-3.165-4.296c-1.131-1.36-2.349-2.642-3.688-3.779
		c-2.657-2.292-5.8-4.04-9.215-4.77c-3.422-0.752-7.017-0.465-10.375,0.587c-3.365,1.017-6.58,2.707-9.344,4.905L5.052,44.289z"/>
	<radialGradient id="SVGID_2_" cx="80.5117" cy="53.873" r="31.5488" gradientUnits="userSpaceOnUse">
		<stop  offset="0" style="stop-color:#FFDD15"/>
		<stop  offset="1" style="stop-color:#8BC53F"/>
	</radialGradient>
	<path fill="url(#SVGID_2_)" d="M86.021,53.512c-1.218-1.604-2.879-2.809-4.683-3.667c-1.819-0.838-3.773-1.389-5.786-1.661
		c-2.006-0.293-4.053-0.357-6.086-0.237c-2.048,0.095-4.096,0.38-6.115,0.76c-2.048,0.415-4.21,0.788-6.38,0.788
		c-2.155,0.015-4.39-0.272-6.395-1.231c-0.3-0.15-0.593-0.33-0.873-0.502c2.263,4.174,11.342,18.295,25.197,6.586
		c4.41-3.637,8.807-2.863,12.022,0.539C86.657,54.406,86.363,53.941,86.021,53.512z"/>
	<radialGradient id="SVGID_3_" cx="83.7354" cy="45.6597" r="37.9934" gradientUnits="userSpaceOnUse">
		<stop  offset="0" style="stop-color:#FFDD15"/>
		<stop  offset="1" style="stop-color:#F6921E"/>
	</radialGradient>
	<path fill="url(#SVGID_3_)" d="M51.1,47.403c1.891,0.681,3.96,0.752,5.979,0.609c2.033-0.164,4.024-0.544,6.064-1.06
		c2.098-0.473,4.226-0.773,6.381-0.902c2.154-0.106,4.331-0.014,6.479,0.351c2.135,0.395,4.262,1.031,6.188,2.119
		c1.925,1.061,3.63,2.58,4.776,4.468c0.071,0.123,0.143,0.258,0.214,0.395c-2.348-6.001-10.898-19.726-37.734-6.794
		C49.968,46.93,50.52,47.21,51.1,47.403z"/>
	<radialGradient id="SVGID_4_" cx="24.3599" cy="24.2573" r="12.2648" gradientUnits="userSpaceOnUse">
		<stop  offset="0" style="stop-color:#00ADEE"/>
		<stop  offset="0.7273" style="stop-color:#2E3191"/>
		<stop  offset="1" style="stop-color:#140958"/>
	</radialGradient>
	<path fill="url(#SVGID_4_)" d="M25.28,27.162c0,2.392-1.941,4.332-4.332,4.332c-2.399,0-4.339-1.94-4.339-4.332
		c0-2.399,1.94-4.339,4.339-4.339C23.339,22.822,25.28,24.763,25.28,27.162z"/>
</g>
</svg>
