<?xml version="1.0" encoding="utf-8"?>
<!-- Generator: Adobe Illustrator 16.0.0, SVG Export Plug-In . SVG Version: 6.00 Build 0)  -->
<!DOCTYPE svg PUBLIC "-//W3C//DTD SVG 1.1//EN" "http://www.w3.org/Graphics/SVG/1.1/DTD/svg11.dtd">
<svg version="1.1" id="Layer_1" xmlns="http://www.w3.org/2000/svg" xmlns:xlink="http://www.w3.org/1999/xlink" x="0px" y="0px"
	 width="100px" height="100px" viewBox="0 0 100 100" enable-background="new 0 0 100 100" xml:space="preserve">
<g>
	<polygon fill="#3F464B" points="52.768,31.128 49.603,34.627 46.448,31.128 47.783,30.337 51.469,30.337 52.768,31.128 	"/>
	<radialGradient id="SVGID_1_" cx="49.2412" cy="30.1958" r="59.0213" gradientUnits="userSpaceOnUse">
		<stop  offset="0" style="stop-color:#FFFFFF"/>
		<stop  offset="0.02" style="stop-color:#FCD7D8"/>
		<stop  offset="0.0454" style="stop-color:#F8ABAE"/>
		<stop  offset="0.0728" style="stop-color:#F58589"/>
		<stop  offset="0.1017" style="stop-color:#F2646A"/>
		<stop  offset="0.1328" style="stop-color:#F04A50"/>
		<stop  offset="0.1667" style="stop-color:#EE353C"/>
		<stop  offset="0.205" style="stop-color:#ED272F"/>
		<stop  offset="0.2512" style="stop-color:#EC1F26"/>
		<stop  offset="0.3273" style="stop-color:#EC1C24"/>
		<stop  offset="0.355" style="stop-color:#E31B23"/>
		<stop  offset="0.5078" style="stop-color:#B81620"/>
		<stop  offset="0.6269" style="stop-color:#9D121E"/>
		<stop  offset="0.697" style="stop-color:#93111D"/>
		<stop  offset="0.9818" style="stop-color:#6E0008"/>
	</radialGradient>
	<path fill="url(#SVGID_1_)" d="M76.646,48.134c-0.233-0.635-0.677-1.212-1.35-1.623c-2.839-1.765-5.253-0.992-10.649,2.826
		c-0.704-0.489-1.436-0.983-2.136-1.431c0.444-0.499,0.81-1.066,1.057-1.666c0.878-2.162,0.22-4.422-1.079-5.803
		c-2.25-2.378-6.128-2.634-8.835-0.813c-0.237,0.164-0.471,0.352-0.699,0.558c-0.361-1.481-1.404-3.841-3.133-4.952
		c-0.068-0.037-0.228-0.142-0.228-0.137c-0.009-0.005-0.138,0.101-0.207,0.137c-1.723,1.111-2.766,3.471-3.127,4.952
		c-0.234-0.206-0.467-0.394-0.7-0.558c-2.707-1.82-6.587-1.564-8.834,0.813c-1.299,1.381-1.956,3.641-1.077,5.803
		c0.245,0.6,0.608,1.167,1.056,1.666c-0.702,0.447-1.434,0.941-2.14,1.431c-5.394-3.818-7.808-4.591-10.65-2.826
		c-0.674,0.411-1.113,0.988-1.344,1.623c-0.196,0.59-0.133,0.553-0.191,0.882c-0.014,0.22-0.014,0.435,0.007,0.649
		c0.137,1.368,1.188,2.681,2.556,3.188c1.635,0.608,3.5,0.303,5.064-0.316c0.625-0.264,0.686-0.292,1.022-0.471
		c0.309-0.165,0.597-0.337,0.86-0.512c0.425-0.288,0.962-0.658,1.58-1.087c0.142-0.096,0.286-0.202,0.43-0.303
		c0.176,0.133,0.356,0.257,0.535,0.388c5.177,3.755,9.683,2.726,11.384,0.5c1.321-1.729,0.923-3.399,0.567-4.24
		c-0.553-1.294-1.738-2.359-2.762-2.479c-0.082-0.014-0.155,0.046-0.169,0.128c-0.014,0.086,0.05,0.164,0.133,0.173
		c0.924,0.11,2.008,1.093,2.515,2.295c0.33,0.777,0.705,2.328-0.525,3.933c-1.615,2.117-5.506,2.419-10.533-1.185
		c-0.073-0.059-0.145-0.104-0.215-0.155c0.695-0.476,1.411-0.96,2.087-1.399c0.798,0.805,1.804,1.376,2.829,1.5
		c1.259,0.146,1.922-0.234,2.256-0.577c0.407-0.43,0.535-1.02,0.476-1.422c-0.068-0.448-0.402-0.869-0.892-1.115
		c-0.447-0.234-1.408-0.517-2.832,0.196c-0.52,0.261-1.121,0.613-1.756,1.015c-0.276-0.366-0.501-0.782-0.67-1.248
		c-0.674-1.848-0.304-3.96,0.919-5.254c2.149-2.277,5.456-2.794,8.035-1.257c0.302,0.178,0.604,0.402,0.896,0.667
		c-0.009,0.042-0.018,0.087-0.023,0.124c-0.169,1.289,0.284,3.845,1.23,4.59c0.284,0.229,0.609,0.284,0.934,0.161
		c0.32-0.128,0.512-0.398,0.539-0.782c0.101-1.093-1.015-3.009-2.332-4.303c0.302-1.449,1.313-3.265,3.032-4.367
		c0.023-0.023,0.05-0.037,0.05-0.037s0.032,0.014,0.06,0.037c1.719,1.103,2.73,2.918,3.032,4.367
		c-1.316,1.294-2.433,3.21-2.332,4.303c0.028,0.384,0.22,0.654,0.539,0.782c0.329,0.123,0.649,0.068,0.933-0.161
		c0.947-0.745,1.396-3.301,1.227-4.59c0-0.037-0.01-0.083-0.019-0.124c0.293-0.265,0.595-0.489,0.892-0.667
		c2.584-1.537,5.885-1.02,8.039,1.257c1.221,1.294,1.591,3.407,0.919,5.254c-0.17,0.466-0.394,0.882-0.668,1.248
		c-0.64-0.402-1.244-0.754-1.76-1.015c-1.423-0.713-2.388-0.43-2.836-0.196c-0.484,0.247-0.818,0.667-0.887,1.115
		c-0.06,0.403,0.064,0.992,0.472,1.422c0.338,0.343,1.001,0.723,2.259,0.577c1.023-0.124,2.03-0.695,2.826-1.5
		c0.681,0.439,1.399,0.923,2.093,1.399c-0.072,0.051-0.146,0.097-0.214,0.155c-5.035,3.604-8.922,3.302-10.536,1.185
		c-1.229-1.604-0.859-3.155-0.53-3.933c0.517-1.203,1.596-2.186,2.52-2.295c0.082-0.009,0.138-0.087,0.128-0.173
		c-0.009-0.083-0.082-0.142-0.165-0.128c-1.023,0.119-2.208,1.185-2.762,2.479c-0.356,0.841-0.759,2.51,0.567,4.24
		c1.701,2.226,6.21,3.255,11.382-0.5c0.183-0.131,0.361-0.255,0.535-0.388c0.146,0.101,0.288,0.207,0.43,0.303
		c0.617,0.429,1.157,0.799,1.582,1.087c0.266,0.175,0.549,0.347,0.859,0.512c0.476,0.257,0.476,0.257,1.02,0.471
		c1.569,0.619,3.43,0.925,5.067,0.316c1.367-0.507,2.419-1.819,2.556-3.188c0.019-0.215,0.023-0.429,0.01-0.649
		C76.747,48.56,76.756,48.523,76.646,48.134z M33.294,50.215c-0.618,0.434-1.15,0.805-1.576,1.087
		c-0.302,0.206-0.638,0.398-1.004,0.581c-0.418,0.196-0.338,0.165-1.029,0.453c-1.458,0.544-3.152,0.782-4.639,0.232
		c-1.264-0.471-2.234-1.678-2.359-2.926c-0.014-0.192-0.014-0.375,0-0.558c0.045-0.375,0.127-0.544,0.242-0.869
		c0.242-0.517,0.668-0.97,1.269-1.308c2.474-1.403,4.905-0.173,9.441,3.068C33.521,50.06,33.408,50.137,33.294,50.215z
		 M38.884,46.982c1.308-0.654,2.168-0.407,2.561-0.201c0.403,0.21,0.677,0.544,0.732,0.896c0.032,0.238-0.009,0.755-0.398,1.157
		c-0.407,0.426-1.103,0.594-1.999,0.489c-1.042-0.123-1.935-0.599-2.598-1.363C37.8,47.568,38.384,47.233,38.884,46.982z
		 M48.551,44.696c-0.018,0.274-0.137,0.444-0.348,0.525c-0.224,0.083-0.43,0.046-0.64-0.114c-0.814-0.645-1.253-2.968-1.121-4.221
		C47.646,42.066,48.634,43.749,48.551,44.696z M51.643,45.107c-0.197,0.16-0.407,0.196-0.631,0.114
		c-0.211-0.082-0.329-0.251-0.353-0.525c-0.077-0.947,0.91-2.629,2.108-3.81C52.9,42.139,52.466,44.463,51.643,45.107z
		 M59.435,49.323c-0.896,0.105-1.591-0.063-2.003-0.489c-0.389-0.402-0.43-0.919-0.394-1.157c0.056-0.352,0.329-0.686,0.732-0.896
		c0.393-0.206,1.252-0.453,2.56,0.201c0.504,0.251,1.08,0.586,1.701,0.979C61.368,48.724,60.478,49.2,59.435,49.323z M76.527,49.643
		c-0.128,1.249-1.098,2.456-2.359,2.926c-1.486,0.55-3.183,0.312-4.637-0.232c-0.508-0.188-0.673-0.266-1.034-0.453
		c-0.364-0.183-0.703-0.375-1.006-0.581c-0.42-0.282-0.955-0.653-1.572-1.087c-0.11-0.078-0.229-0.156-0.343-0.238
		c4.531-3.242,6.964-4.472,9.438-3.068c0.604,0.338,1.029,0.791,1.271,1.308c0.137,0.361,0.174,0.489,0.242,0.869
		C76.546,49.269,76.546,49.451,76.527,49.643z"/>
	<g>
		<radialGradient id="SVGID_2_" cx="49.2383" cy="30.1934" r="59.0248" gradientUnits="userSpaceOnUse">
			<stop  offset="0" style="stop-color:#FFFFFF"/>
			<stop  offset="0.02" style="stop-color:#FCD7D8"/>
			<stop  offset="0.0454" style="stop-color:#F8ABAE"/>
			<stop  offset="0.0728" style="stop-color:#F58589"/>
			<stop  offset="0.1017" style="stop-color:#F2646A"/>
			<stop  offset="0.1328" style="stop-color:#F04A50"/>
			<stop  offset="0.1667" style="stop-color:#EE353C"/>
			<stop  offset="0.205" style="stop-color:#ED272F"/>
			<stop  offset="0.2512" style="stop-color:#EC1F26"/>
			<stop  offset="0.3273" style="stop-color:#EC1C24"/>
			<stop  offset="0.355" style="stop-color:#E31B23"/>
			<stop  offset="0.5078" style="stop-color:#B81620"/>
			<stop  offset="0.6269" style="stop-color:#9D121E"/>
			<stop  offset="0.697" style="stop-color:#93111D"/>
			<stop  offset="0.9818" style="stop-color:#6E0008"/>
		</radialGradient>
		<path fill="url(#SVGID_2_)" d="M94.842,58.501c-0.672-2.007-1.953-3.75-3.438-5.158c-1.5-1.437-3.298-2.547-5.228-3.27
			c-1.925-0.732-3.974-1.08-5.999-1.107c-2.03-0.045-4.033,0.183-6.009,0.513c-1.975,0.347-3.924,0.8-5.862,1.335
			c-0.965,0.27-1.93,0.562-2.88,0.896c-0.952,0.338-1.88,0.695-2.809,1.143l-0.009,0.009l-0.027,0.014
			c-1.065,0.631-2.127,1.267-3.211,1.843c-1.093,0.576-2.199,1.112-3.347,1.527c-1.135,0.416-2.323,0.736-3.513,0.736
			c-0.594-0.014-1.188-0.096-1.71-0.366c-0.256-0.132-0.502-0.306-0.709-0.517c-0.205-0.209-0.393-0.466-0.498-0.741l-0.115,0.028
			c0.142,0.645,0.572,1.194,1.13,1.564c0.558,0.364,1.216,0.562,1.865,0.626c0.654,0.064,1.313,0.032,1.953-0.069
			c0.636-0.104,1.267-0.241,1.879-0.438c1.222-0.386,2.396-0.884,3.521-1.455c1.13-0.562,2.217-1.192,3.265-1.879
			c0.846-0.449,1.742-0.869,2.634-1.275c0.896-0.408,1.811-0.787,2.744-1.131c1.865-0.681,3.79-1.202,5.753-1.49
			c3.918-0.581,7.992-0.238,11.56,1.221c1.783,0.741,3.402,1.819,4.765,3.168c1.372,1.34,2.552,2.896,3.219,4.65
			c0.687,1.762,0.782,3.719,0.339,5.589c-0.224,0.942-0.562,1.852-0.997,2.729c-0.174,0.356-0.365,0.69-0.566,1.033
			c-0.393,0.65-0.852,1.55-2.826,3.105c0.544-0.188,1.16-0.608,1.852-1.253c0.453-0.431,0.699-0.772,0.956-1.13
			c0.393-0.563,0.695-0.996,1.023-1.504c0.541-0.86,0.997-1.789,1.31-2.775c0.319-0.979,0.493-2.017,0.493-3.074
			C95.358,60.555,95.171,59.497,94.842,58.501z"/>
		<radialGradient id="SVGID_3_" cx="49.2422" cy="30.1934" r="59.0267" gradientUnits="userSpaceOnUse">
			<stop  offset="0" style="stop-color:#FFFFFF"/>
			<stop  offset="0.02" style="stop-color:#FCD7D8"/>
			<stop  offset="0.0454" style="stop-color:#F8ABAE"/>
			<stop  offset="0.0728" style="stop-color:#F58589"/>
			<stop  offset="0.1017" style="stop-color:#F2646A"/>
			<stop  offset="0.1328" style="stop-color:#F04A50"/>
			<stop  offset="0.1667" style="stop-color:#EE353C"/>
			<stop  offset="0.205" style="stop-color:#ED272F"/>
			<stop  offset="0.2512" style="stop-color:#EC1F26"/>
			<stop  offset="0.3273" style="stop-color:#EC1C24"/>
			<stop  offset="0.355" style="stop-color:#E31B23"/>
			<stop  offset="0.5078" style="stop-color:#B81620"/>
			<stop  offset="0.6269" style="stop-color:#9D121E"/>
			<stop  offset="0.697" style="stop-color:#93111D"/>
			<stop  offset="0.9818" style="stop-color:#6E0008"/>
		</radialGradient>
		<path fill="url(#SVGID_3_)" d="M4.376,58.501c0.669-2.007,1.95-3.75,3.436-5.158c1.498-1.437,3.295-2.547,5.225-3.27
			c1.93-0.732,3.974-1.08,6-1.107c2.031-0.045,4.034,0.183,6.011,0.513c1.975,0.347,3.925,0.8,5.86,1.335
			c0.97,0.27,1.927,0.562,2.881,0.896c0.951,0.338,1.882,0.695,2.814,1.143l0.005,0.009l0.03,0.014
			c1.063,0.631,2.122,1.267,3.21,1.843c1.085,0.576,2.197,1.112,3.34,1.527c1.138,0.416,2.328,0.736,3.516,0.736
			c0.59-0.014,1.185-0.096,1.706-0.366c0.261-0.132,0.508-0.306,0.718-0.517c0.206-0.209,0.389-0.466,0.494-0.741l0.115,0.028
			c-0.142,0.645-0.572,1.194-1.13,1.564c-0.554,0.364-1.217,0.562-1.866,0.626c-0.658,0.064-1.312,0.032-1.957-0.069
			c-0.631-0.104-1.262-0.241-1.875-0.438c-1.221-0.386-2.396-0.884-3.523-1.455c-1.129-0.562-2.218-1.192-3.265-1.879
			c-0.843-0.449-1.74-0.869-2.629-1.275c-0.903-0.408-1.818-0.787-2.748-1.131c-1.858-0.681-3.791-1.202-5.752-1.49
			C21.071,49.26,17,49.603,13.428,51.062c-1.779,0.741-3.4,1.819-4.76,3.168c-1.374,1.34-2.552,2.896-3.222,4.65
			c-0.682,1.762-0.779,3.719-0.332,5.589c0.22,0.942,0.558,1.852,0.995,2.729c0.174,0.356,0.363,0.69,0.567,1.033
			c0.389,0.65,0.848,1.55,2.825,3.105c-0.543-0.188-1.161-0.608-1.854-1.253c-0.451-0.431-0.7-0.772-0.96-1.13
			C6.296,68.392,6,67.958,5.67,67.45c-0.547-0.86-0.997-1.789-1.313-2.775c-0.318-0.979-0.49-2.017-0.494-3.074
			C3.861,60.555,4.042,59.497,4.376,58.501z"/>
	</g>
</g>
</svg>
