<?xml version="1.0" encoding="utf-8"?>
<!-- Generator: Adobe Illustrator 16.0.0, SVG Export Plug-In . SVG Version: 6.00 Build 0)  -->
<!DOCTYPE svg PUBLIC "-//W3C//DTD SVG 1.1//EN" "http://www.w3.org/Graphics/SVG/1.1/DTD/svg11.dtd">
<svg version="1.1" id="Layer_1" xmlns="http://www.w3.org/2000/svg" xmlns:xlink="http://www.w3.org/1999/xlink" x="0px" y="0px"
	 width="100px" height="100px" viewBox="0 0 100 100" enable-background="new 0 0 100 100" xml:space="preserve">
<g>
	<g>
		<path fill-rule="evenodd" clip-rule="evenodd" fill="#6D0E6B" d="M83.16,45.034c-0.892,0.254-1.795,0.604-2.687,1.04
			c1.971-1.722,3.597-3.089,5.341-4.208c0.719,2.785,6.316,0.152,5.977-1.717c-0.13,0.045-0.312,0.299-0.803,0.548
			c1.152-1.458,1.492-1.858,1.684-3.598c-1.808-1.361-9.94,0.695-7.264,4.118l0,0c-1.852,1.141-3.598,2.677-5.681,4.581
			c9.403-10.172,9.771-27.494,2.604-32.531h0.006c-0.017-0.011-0.034-0.017-0.045-0.029c-0.666-0.468-1.4-0.824-2.191-1.056
			c-4.62-1.451-9.229,1.48-9.229,1.48l0,0c-3.479,2.01-6.11,5.574-6.347,9.437c-0.102,1.632,0.095,3.298,0.649,4.778
			c-3.441-4.931-8.398-8.365-14.871-8.657c0.022-0.013,0.044-0.029,0.067-0.046c-0.045-0.006-0.067-0.022-0.085-0.057
			c1.389-0.361,2.864-1.547,2.699-2.501c-0.106,0.039-0.253,0.271-0.659,0.491c0.947-1.304,1.229-1.655,1.395-3.214
			c-1.351,0.012-2.366,0.475-3.14,1.096c-0.007-0.034-0.018-0.056-0.023-0.084c-0.158-0.932-0.547-1.904-1.361-2.819h-0.384
			c-0.802,0.91-1.192,1.881-1.355,2.802c-0.757-0.582-1.746-1.006-3.033-1.011c0.164,1.553,0.446,1.909,1.396,3.213
			c-0.407-0.227-0.554-0.458-0.656-0.492c-0.164,0.932,1.22,2.074,2.576,2.468c-0.011,0.068-0.045,0.102-0.09,0.108
			c0.045,0.033,0.09,0.062,0.141,0.09c-6.139,0.497-10.861,3.857-14.181,8.613c0.55-1.48,0.748-3.146,0.649-4.778
			c-0.234-3.852-2.88-7.269-6.348-9.296v-0.006c0,0-4.598-3.032-9.22-1.615c-0.669,0.192-1.296,0.479-1.878,0.842
			c-0.119,0.073-0.241,0.152-0.358,0.231c0.002,0,0.002,0,0.002,0c-7.179,5.032-6.811,22.365,2.598,32.542
			c-2.084-1.904-3.829-3.44-5.679-4.581l0,0c2.671-3.422-5.456-5.479-7.268-4.118c0.197,1.74,0.536,2.141,1.683,3.598
			c-0.489-0.249-0.669-0.502-0.797-0.548c-0.342,1.869,5.255,4.501,5.97,1.717c1.748,1.118,3.374,2.485,5.346,4.208
			c-0.898-0.435-1.799-0.785-2.688-1.04C9.054,43.137,4.361,47.762,5.528,54.62c0.389,2.27,1.827,4.246,3.772,5.341
			c1.019,0.566,2.157,0.961,3.284,1.074c3.096,0.3,5.86-1.842,5.685-5.044c-0.08-1.469-0.788-2.898-1.938-3.841
			c-2.779-2.27-7.161-0.582-6.182,3.102c0.289,1.073,1.217,1.998,2.917,2.236c-1.223-0.485-2.047-1.44-2.092-2.593
			c-0.113-3.032,2.749-3.664,4.481-1.977c0.786,0.77,1.5,1.763,1.517,3.09c0.028,2.558-1.621,4.02-4.171,3.728
			c-1.101-0.125-2.208-0.526-2.985-1.011c-1.609-1.018-2.629-2.391-2.957-4.338c-0.977-5.834,3.061-10.217,8.765-8.336
			c7.594,2.496,14.241,10.662,14.306,18.727c0.209-2.496-0.158-4.868-0.935-7.053c-0.263-1.655-0.429-3.355-0.488-5.106
			c0.254,0.169,0.557,0.266,0.881,0.266c0.026,0,0.051,0,0.073-0.005c0.61,14.779,9.297,26.504,19.925,26.504
			c10.629,0,19.315-11.725,19.925-26.504c0.028,0.005,0.057,0.005,0.08,0.005c0.327,0,0.626-0.097,0.88-0.266
			c-0.062,1.751-0.226,3.451-0.485,5.106c-0.778,2.185-1.146,4.557-0.938,7.053c0.062-8.064,6.71-16.23,14.306-18.727
			c5.699-1.881,9.741,2.501,8.76,8.336c-0.321,1.947-1.344,3.32-2.954,4.338c-0.774,0.484-1.88,0.886-2.976,1.011
			c-2.554,0.292-4.209-1.17-4.18-3.728c0.022-1.327,0.734-2.32,1.514-3.09c1.739-1.688,4.603-1.056,4.483,1.977
			c-0.044,1.152-0.87,2.107-2.09,2.593c1.701-0.238,2.633-1.163,2.916-2.236c0.981-3.684-3.4-5.372-6.18-3.102
			c-1.151,0.942-1.858,2.372-1.941,3.841c-0.171,3.202,2.598,5.344,5.687,5.044c1.13-0.113,2.266-0.508,3.286-1.074
			c1.948-1.095,3.385-3.071,3.769-5.341C94.422,47.762,89.724,43.137,83.16,45.034z M49.388,21.738
			c11.223,0,20.377,12.476,20.885,28.125c-0.254-0.169-0.553-0.265-0.88-0.265c-0.023,0-0.052,0.005-0.08,0.005
			c-0.593-14.797-9.284-26.533-19.925-26.533c-10.64,0-19.33,11.736-19.925,26.533c-0.025,0-0.051-0.005-0.073-0.005
			c-0.325,0-0.627,0.096-0.881,0.265C29.014,34.214,38.171,21.738,49.388,21.738z M20.915,13.091
			c5.275-0.09,11.374,4.389,11.998,9.918c0.331,2.903-1.299,7.545-4.527,8.02c-4.418,0.644-6.5-1.656-7.006-4.197
			c-0.651-3.298,1.757-7.071,5.476-5.1c1.412,0.751,2.171,2.763,2.044,4.586c0.723-2.27,0.13-3.992-1.039-4.998
			c-4.007-3.451-8.768,1.011-7.604,5.85c0.878,3.655,4.708,6.496,8.646,5.298c1.234-0.373,2.228-1.011,3.013-1.83
			c-1.713,3.196-2.908,6.806-3.583,10.505c-0.009-0.74-0.282-1.503-0.802-2.141c-0.449-0.548-1.047-1-1.698-1.333
			c-1.242-0.632-2.767-0.694-4.085-0.113c-2.895,1.288-3.705,4.202-2.666,6.75C9.701,32.808,10.45,13.267,20.915,13.091z
			 M22.089,38.332c1.13-0.503,2.195-0.452,3.281,0.039c0.522,0.227,1.116,0.667,1.559,1.197c1.037,1.226,0.85,2.587-0.491,3.457
			c-0.695,0.458-1.463,0.429-2.13,0.289c-1.482-0.317-2.143-2.027-0.528-3.017c0.613-0.378,1.398-0.282,2.076,0.187
			c-0.717-0.802-1.519-0.966-2.177-0.74c-2.253,0.768-1.615,3.632,0.534,4.286c0.884,0.271,1.875,0.141,2.663-0.321
			c0.638-0.373,1.063-0.91,1.279-1.508c-0.415,2.677-0.562,5.394-0.44,8.003h-0.113c-0.282,0-0.539,0.112-0.726,0.3
			c-2.004-0.95-3.798-2.187-5.379-3.633C19.06,44.374,18.938,39.743,22.089,38.332z M28.703,56.957
			c-1.194-2.919-3.117-5.473-5.365-7.495c1.006,0.672,2.082,1.276,3.222,1.796c0.011,0.565,0.475,1.021,1.042,1.021h0.271
			C28.039,53.908,28.319,55.473,28.703,56.957z M29.389,52.342c-0.61,0-1.102-0.491-1.102-1.101s0.492-1.101,1.102-1.101
			s1.102,0.491,1.102,1.101S29.999,52.342,29.389,52.342z M67.754,52.28c-0.389,13.583-8.178,24.473-17.835,24.855h-0.813
			c0.09,0.007,0.192,0.007,0.282,0.013c-9.895,0-17.965-11.042-18.357-24.868c0.542-0.032,0.977-0.485,0.977-1.039l0,0
			c0-0.547-0.435-1.005-0.977-1.039c0.375-13.707,8.299-24.687,18.075-24.895l0.813,0.005c9.663,0.384,17.463,11.29,17.835,24.89
			c-0.541,0.034-0.982,0.492-0.982,1.039l0,0C66.771,51.795,67.213,52.248,67.754,52.28z M69.393,52.342
			c-0.61,0-1.102-0.491-1.102-1.101s0.491-1.101,1.102-1.101c0.609,0,1.101,0.491,1.101,1.101S70.002,52.342,69.393,52.342z
			 M70.08,56.957c0.385-1.484,0.662-3.049,0.826-4.677h0.27c0.571,0,1.034-0.456,1.04-1.021c1.146-0.521,2.226-1.125,3.229-1.796
			C73.198,51.484,71.267,54.038,70.08,56.957z M77.288,46.87c-1.582,1.446-3.378,2.683-5.383,3.633
			c-0.187-0.188-0.447-0.3-0.729-0.3h-0.112c0.124-2.609-0.023-5.326-0.439-8.003c0.22,0.599,0.643,1.135,1.281,1.508
			c0.785,0.462,1.779,0.593,2.66,0.321c2.146-0.654,2.79-3.519,0.535-4.286c-0.659-0.227-1.461-0.062-2.173,0.74
			c0.678-0.469,1.457-0.565,2.072-0.187c1.615,0.989,0.954,2.7-0.524,3.017c-0.667,0.141-1.436,0.169-2.136-0.289
			c-1.339-0.87-1.524-2.231-0.486-3.457c0.441-0.53,1.034-0.971,1.561-1.197c1.084-0.491,2.146-0.542,3.273-0.039
			C79.84,39.743,79.717,44.374,77.288,46.87z M77.032,37.557c-1.314-0.582-2.84-0.52-4.082,0.113
			c-0.655,0.333-1.254,0.786-1.699,1.333c-0.526,0.638-0.797,1.4-0.802,2.141c-0.674-3.7-1.871-7.309-3.587-10.505
			c0.784,0.819,1.784,1.457,3.016,1.83c3.941,1.197,7.771-1.644,8.642-5.298c1.162-4.839-3.594-9.301-7.603-5.85
			c-1.163,1.005-1.763,2.728-1.039,4.998c-0.124-1.823,0.633-3.835,2.044-4.586c3.716-1.971,6.134,1.802,5.478,5.1
			c-0.508,2.541-2.586,4.84-7.001,4.197c-3.232-0.475-4.858-5.117-4.53-8.02c0.62-5.529,6.721-10.008,11.995-9.918
			c10.471,0.176,11.216,19.717,1.836,31.216C80.733,41.759,79.925,38.845,77.032,37.557z"/>
	</g>
	<g>
		<path fill="none" d="M46.857,34.824c-0.044-0.05-0.113-0.102-0.124-0.163c0,0.073,0.08,0.128,0.124,0.192V34.824z"/>
		<path fill="none" d="M47.173,32.125c0.011,0.027,0.136,0.056,0.181,0.084l0.034-0.203C47.297,32.023,47.219,32.062,47.173,32.125z
			"/>
		<path fill="none" d="M50.432,35.35l-0.005,0.141c0.916-0.125,1.616-0.419,1.514-0.848C52.002,35.005,51.313,35.242,50.432,35.35z"
			/>
		<path fill="#3F464B" d="M61.599,76.237c-7.23-9.623-4.315-17.931-5.027-22.815c0-0.011,0-0.017,0-0.034
			c-0.045-0.543-0.191-1.021-0.384-1.468l-0.006-0.013c-0.005,0-0.005-0.005-0.005-0.011c-0.012-0.033-0.034-0.055-0.046-0.09
			c-0.022-0.045-0.045-0.09-0.067-0.136c-0.622-1.198-1.655-2.056-2.321-2.767c0,0-0.006-0.011-0.006-0.018h-0.011
			c-0.362-0.395-0.61-0.74-0.604-1.067c0.05-2.638,5.495-10.596,3.416-11.584c-1.011-0.485-4.41-1.243-4.574-1.575
			c-0.012-0.029-0.022-0.057-0.033-0.085l-0.396-2.49c0,0.113-0.372,0.232-0.926,0.322l0.022-0.412c0.125,0,0.226,0.028,0.317,0.079
			C51.004,32.028,51.081,32,51.184,32c0.136,0,0.23,0,0.293,0.085v-3.722c-0.045-0.989-0.52-1.486-1.422-1.486
			c-0.204,0-0.413,0.034-0.616,0.108c-3.53,0.92-5.298,1.802-5.298,2.648c0,0.717,0.26,1.073,0.786,1.073
			c0.113,0,0.237-0.017,0.372-0.034c0.249-0.068,0.475-0.107,0.678-0.107c0.79,0,1.186,0.508,1.186,1.52v0.04
			c-0.005-0.012-0.074-0.029-0.074-0.04l-0.355,2.576c0.011,0.062,0.08,0.113,0.124,0.163v0.029
			c-0.044-0.063-0.124-0.119-0.124-0.192c-0.17,0.332-3.564,1.089-4.575,1.575c-2.079,0.988,3.366,8.946,3.417,11.584
			c0.017,0.785-2.547,2.281-3.191,4.287c-1.316,4.083,0.802,8.555,0.53,12.622c-0.282,4.061-4.936,11.262-8.406,12.917
			c-3.468,1.653-6.441,3.364-3.688,7.229c2.754,3.862,7.927,1.903,7.927,1.903c2.813,6.173,10.573,0.955,10.573,0.955
			s1.705,2.01,5.177,1.202c3.468-0.801,4.293-3.406,4.293-3.406C64.083,85.275,65.382,81.271,61.599,76.237z M47.173,32.125
			c0.046-0.063,0.124-0.102,0.215-0.119l-0.034,0.203C47.31,32.18,47.185,32.152,47.173,32.125z M50.426,35.491l0.005-0.141
			c0.882-0.108,1.57-0.345,1.509-0.707C52.042,35.072,51.342,35.365,50.426,35.491z"/>
	</g>
</g>
</svg>
