<?xml version="1.0" encoding="utf-8"?>
<!-- Generator: Adobe Illustrator 16.0.0, SVG Export Plug-In . SVG Version: 6.00 Build 0)  -->
<!DOCTYPE svg PUBLIC "-//W3C//DTD SVG 1.1//EN" "http://www.w3.org/Graphics/SVG/1.1/DTD/svg11.dtd">
<svg version="1.1" id="Layer_1" xmlns="http://www.w3.org/2000/svg" xmlns:xlink="http://www.w3.org/1999/xlink" x="0px" y="0px"
	 width="100px" height="100px" viewBox="0 0 100 100" enable-background="new 0 0 100 100" xml:space="preserve">
<g>
	<path fill="#3D291E" d="M82.537,58.767c-7.095,0-13.229,9.548-20.5,11.757c3.945,1.084,9.608,1.084,16.096-3.61
		c0,0-9.752,11.261-21.339,3.939c3.104,3.842,6.812,5.361,10.662,5.361c12.004,0,19.289-11.937,23.222-11.937
		c0.683,0,1.359,0.171,1.957,0.68h0.121C90.088,61.601,86.797,58.767,82.537,58.767z"/>
	<g>
		<path fill="#85603A" d="M67.146,43.719c-6.201,3.449-6.918,14.779-12.2,20.243c3.979-0.97,8.929-3.721,12.318-10.976
			c0,0-3.052,14.585-16.734,13.821c4.582,1.846,8.561,1.374,11.925-0.498C72.941,60.474,73.5,46.489,76.938,44.577
			c0.595-0.332,1.283-0.486,2.036-0.368l0.105-0.057C75.149,42.577,70.866,41.65,67.146,43.719z"/>
	</g>
	<path fill="#3D291E" d="M41.401,35.714c-1.178,6.999,7.225,14.634,8.191,22.171c1.728-3.71,2.671-9.298-0.879-16.474
		c0,0,9.484,11.493,0.342,21.699c4.304-2.422,6.419-5.822,7.059-9.623c1.994-11.834-8.581-21.004-7.925-24.886
		c0.111-0.67,0.419-1.305,0.984-1.818l0.021-0.118C45.513,28.75,42.111,31.513,41.401,35.714z"/>
	<path fill="#3D291E" d="M17.15,58.767c7.095,0,13.23,9.548,20.5,11.757c-3.944,1.084-9.608,1.084-16.099-3.61
		c0,0,9.756,11.261,21.343,3.939c-3.105,3.842-6.812,5.361-10.663,5.361c-12.004,0-19.289-11.937-23.222-11.937
		c-0.683,0-1.359,0.171-1.958,0.68H6.932C9.599,61.601,12.891,58.767,17.15,58.767z"/>
	<g>
		<path fill="#85603A" d="M32.542,43.719c6.202,3.449,6.917,14.779,12.197,20.243c-3.976-0.97-8.926-3.721-12.315-10.976
			c0,0,3.051,14.585,16.734,13.821c-4.582,1.846-8.561,1.374-11.925-0.498C26.746,60.474,26.188,46.489,22.75,44.577
			c-0.598-0.332-1.283-0.486-2.036-0.368l-0.106-0.057C24.538,42.577,28.818,41.65,32.542,43.719z"/>
	</g>
</g>
</svg>
