<?xml version="1.0" encoding="utf-8"?>
<!-- Generator: Adobe Illustrator 16.0.0, SVG Export Plug-In . SVG Version: 6.00 Build 0)  -->
<!DOCTYPE svg PUBLIC "-//W3C//DTD SVG 1.1//EN" "http://www.w3.org/Graphics/SVG/1.1/DTD/svg11.dtd">
<svg version="1.1" id="Layer_1" xmlns="http://www.w3.org/2000/svg" xmlns:xlink="http://www.w3.org/1999/xlink" x="0px" y="0px"
	 width="100px" height="100px" viewBox="0 0 100 100" enable-background="new 0 0 100 100" xml:space="preserve">
<g>
	<radialGradient id="SVGID_1_" cx="50.4873" cy="-2.4155" r="36.6039" gradientUnits="userSpaceOnUse">
		<stop  offset="0" style="stop-color:#00ADEE"/>
		<stop  offset="0.0016" style="stop-color:#01ADEE"/>
		<stop  offset="0.0526" style="stop-color:#15ABE6"/>
		<stop  offset="0.1029" style="stop-color:#22A9E2"/>
		<stop  offset="0.1515" style="stop-color:#26A9E0"/>
		<stop  offset="0.3273" style="stop-color:#1B75BB"/>
		<stop  offset="0.5212" style="stop-color:#2B388F"/>
		<stop  offset="0.7576" style="stop-color:#1C1651"/>
		<stop  offset="1" style="stop-color:#120742"/>
	</radialGradient>
	<path fill="url(#SVGID_1_)" d="M58.896,13.152c0,5.149-4.175,9.325-9.324,9.325s-9.325-4.175-9.325-9.325
		c0-5.161,4.175-9.336,9.325-9.336S58.896,7.991,58.896,13.152z"/>
	<g>
		<radialGradient id="SVGID_2_" cx="55.207" cy="36.2119" r="96.5759" gradientUnits="userSpaceOnUse">
			<stop  offset="0" style="stop-color:#8BC53F"/>
			<stop  offset="0.3455" style="stop-color:#37B34A"/>
			<stop  offset="0.4555" style="stop-color:#2CA547"/>
			<stop  offset="0.6642" style="stop-color:#117F3D"/>
			<stop  offset="0.7758" style="stop-color:#006838"/>
			<stop  offset="1" style="stop-color:#000600"/>
		</radialGradient>
		<path fill="url(#SVGID_2_)" d="M26.376,8.989C25.808,44.734,75.262,52.76,63.978,86c6.772,2.864,16.004,4.35,24.193,3.711
			c-3.422,1.913-7.006,3.387-10.659,4.442c-29.807-5.15-51.588-32.174-56.262-54.035c2.667,31.198,25.701,47.308,43.167,56.053
			c-15.68,0.36-31.337-6.437-41.729-19.763C6.706,55.915,8.724,27.093,26.376,8.989L26.376,8.989z"/>
		<radialGradient id="SVGID_3_" cx="49.7861" cy="36.9297" r="71.9334" gradientUnits="userSpaceOnUse">
			<stop  offset="0.0121" style="stop-color:#26A9E0"/>
			<stop  offset="0.0861" style="stop-color:#239CD7"/>
			<stop  offset="0.2235" style="stop-color:#1C79BE"/>
			<stop  offset="0.2364" style="stop-color:#1B75BB"/>
			<stop  offset="1" style="stop-color:#120742"/>
		</radialGradient>
		<path fill="url(#SVGID_3_)" d="M69.556,60.056c4.095-6.624,6.971-13.501,8.339-19.938c-0.765,8.93-3.201,16.632-6.704,23.277
			c2.088,4.79,3.19,10.09,2.679,16.052c0.895-0.976,1.765-1.983,2.587-3.039c15.982-20.493,13.977-49.315-3.688-67.419
			c0.232,14.845-8.154,24.901-17.234,33.982C60.613,47.959,65.937,53.502,69.556,60.056z"/>
	</g>
</g>
</svg>
