<?xml version="1.0" encoding="utf-8"?>
<!-- Generator: Adobe Illustrator 16.0.0, SVG Export Plug-In . SVG Version: 6.00 Build 0)  -->
<!DOCTYPE svg PUBLIC "-//W3C//DTD SVG 1.1//EN" "http://www.w3.org/Graphics/SVG/1.1/DTD/svg11.dtd">
<svg version="1.1" id="Layer_1" xmlns="http://www.w3.org/2000/svg" xmlns:xlink="http://www.w3.org/1999/xlink" x="0px" y="0px"
	 width="100px" height="100px" viewBox="0 0 100 100" enable-background="new 0 0 100 100" xml:space="preserve">
<g>
	<g>
		<g>
			<radialGradient id="SVGID_1_" cx="47.6577" cy="35.4224" r="84.9172" gradientUnits="userSpaceOnUse">
				<stop  offset="0.0303" style="stop-color:#F28AB8"/>
				<stop  offset="0.2667" style="stop-color:#ED4F9B"/>
				<stop  offset="0.5515" style="stop-color:#EB008B"/>
				<stop  offset="1" style="stop-color:#7C003A"/>
			</radialGradient>
			<path fill="url(#SVGID_1_)" d="M76.614,36.667c-0.855,0.109-1.621,0.667-2.001,1.449c-0.283,0.572-0.427,1.17-0.427,1.82
				c0,1.341,0.603,2.655,1.179,3.921c0.314,0.694,0.611,1.354,0.813,2c0.13,0.433,0.226,0.825,0.279,1.206
				c-0.236,0.065-0.489,0.101-0.738,0.104c0.005-0.079,0.005-0.153,0.005-0.232v-0.156c0-2.078-0.555-3.302-1.656-3.638
				c-0.419-0.122-0.815-0.065-1.139,0.18c-0.415,0.305-0.685,0.903-0.685,1.519c0,0.179,0.021,0.354,0.068,0.512
				c0.35,1.213,1.488,2.222,2.708,2.445c-0.136,0.786-0.468,1.742-1.279,2.35c-0.109-0.105-0.229-0.214-0.358-0.31
				c-0.476-0.337-1.721-0.878-2.445-0.573c-0.279,0.122-0.462,0.358-0.52,0.682c-0.021,0.057-0.031,0.117-0.031,0.182
				c0,0.019,0.01,0.076,0.019,0.123c0.026,0.695,0.839,1.01,1.322,1.083c0.772,0.123,1.567-0.235,1.873-0.396
				c0.01-0.005,0.013-0.005,0.018-0.01c0.236,0.211,0.498,0.398,0.816,0.467c0.083,0.019,0.153,0.019,0.232,0.021
				c-0.464,0.032-0.866,0.311-1.154,0.538c-0.82-0.468-1.668-0.59-2.331-0.323c-0.488,0.192-1.073,0.668-0.935,1.23
				c0.123,0.546,0.639,0.923,1.206,0.874c0.712-0.062,1.437-0.38,1.942-0.847c0.058-0.049,0.117-0.101,0.171-0.152
				c0.558,0.401,0.935,0.942,1.136,1.668c0.068,0.23,0.126,0.476,0.166,0.715c-1.019,0.157-1.888,0.757-2.394,1.664
				c-0.148,0.267-0.401,0.805-0.401,1.397c0,0.401,0.113,0.746,0.34,1.026c0.258,0.326,0.665,0.532,1.075,0.567
				c0.383,0.03,0.75-0.092,1.021-0.342c0.72-0.663,1.117-1.771,1.117-3.13c0-0.201-0.009-0.396-0.025-0.603
				c0.244,0.005,0.471,0.035,0.689,0.101c-0.113,0.799-0.389,1.664-0.83,2.654c-0.096,0.197-0.183,0.394-0.28,0.603
				c-0.549,1.179-1.169,2.512-1.169,3.856c0,0.327,0.039,0.646,0.112,0.957c0.267,1.046,1.241,2.61,2.735,2.334
				c0.671-0.126,1.2-0.619,1.5-1.253c0.189,0.098,0.377,0.188,0.595,0.236c1.097,0.262,2.219,0.021,3.17-0.668
				c0.942-0.69,1.489-1.891,1.489-3.292c0-0.922-0.24-1.826-0.677-2.541c-0.079-0.113-0.21-0.166-0.34-0.132
				c-0.027,0.01-0.044,0.031-0.063,0.04c0-0.014,0-0.021,0-0.035c0-0.756-0.096-1.511-0.201-2.244l-0.024-0.185
				c0.497-0.633,1.043-1.27,1.57-1.88c0.035-0.041,0.065-0.079,0.098-0.111c0.261,0.529,0.476,1.079,0.636,1.651
				c-0.244,0.428-0.523,0.948-0.532,1.476c0,0.185,0.019,0.442,0.188,0.607c0.092,0.091,0.215,0.14,0.35,0.135
				c0.376,0,0.65-0.433,0.707-0.707c0.035-0.174,0.054-0.345,0.054-0.532c0-0.311-0.054-0.611-0.11-0.892
				c0.437-0.746,0.899-1.488,1.423-2.184c0.258,0.464,0.468,0.901,0.622,1.328l0.052,0.139c0.113,0.32,0.236,0.646,0.236,0.97
				c0.017,0.149-0.006,0.307-0.065,0.454c-0.07,0.04-0.133,0.062-0.18,0.084c0.065-0.131,0.025-0.305-0.092-0.389
				c-0.079-0.052-0.171-0.073-0.267-0.044c-0.218,0.07-0.35,0.271-0.35,0.528c0,0.219,0.097,0.445,0.249,0.572
				c0.117,0.096,0.262,0.139,0.41,0.114c0.582-0.098,0.904-0.521,0.904-1.188c0-0.568-0.228-1.223-0.42-1.682
				c-0.201-0.489-0.44-0.953-0.693-1.398c0.38-0.457,0.791-0.881,1.236-1.261c0.532,0.402,1.113,0.755,1.755,1.03
				c0.611,0.263,1.816,0.664,3.021,0.396c1.065-0.231,1.655-0.815,2.328-1.492l0.101-0.097c0.008-0.004,0.008-0.022,0.017-0.035
				c0.014-0.012,0.019-0.025,0.026-0.044c0.027-0.047,0.044-0.096,0.044-0.139l0,0l0,0c0-0.035-0.017-0.087-0.044-0.131
				c-0.005-0.019-0.013-0.035-0.029-0.052c-0.006-0.011-0.006-0.023-0.014-0.027l-0.044-0.052c-0.776-0.773-1.388-1.38-2.577-1.572
				c-0.846-0.144-1.851,0.008-2.828,0.432c-0.633,0.271-1.206,0.62-1.73,1.013c-0.453-0.375-0.858-0.795-1.23-1.231
				c0.296-0.533,0.56-1.083,0.761-1.664c0.09-0.254,0.305-0.918,0.305-1.498c0-0.716-0.349-1.127-0.951-1.127
				c-0.358,0-0.604,0.362-0.604,0.699c0,0.253,0.141,0.45,0.358,0.515c0.093,0.031,0.188,0.014,0.267-0.04
				c0.117-0.087,0.157-0.262,0.096-0.384c0.043,0.018,0.097,0.035,0.157,0.07l0.092,0.31v0.057c0,0.14-0.019,0.274-0.052,0.406
				c-0.079,0.349-0.192,0.69-0.333,1.018c-0.147,0.367-0.332,0.725-0.52,1.074c-0.537-0.704-1.021-1.437-1.437-2.153
				c0.062-0.28,0.132-0.594,0.132-0.909c0-0.231-0.035-0.428-0.105-0.602c-0.07-0.184-0.279-0.616-0.677-0.616
				c-0.135-0.004-0.263,0.044-0.35,0.132c-0.126,0.126-0.188,0.31-0.188,0.563c0,0.053,0.009,0.104,0.009,0.149
				c0.043,0.48,0.276,0.935,0.523,1.371c-0.165,0.594-0.392,1.157-0.663,1.699c-0.524-0.634-1.083-1.323-1.641-2.035
				c0.008-0.057,0.017-0.11,0.017-0.158l0.014-0.083c0.1-0.712,0.195-1.455,0.195-2.192c0-0.021-0.008-0.035-0.008-0.053
				c0.026,0.013,0.043,0.04,0.078,0.049c0.131,0.034,0.267-0.018,0.34-0.136c0.424-0.72,0.665-1.611,0.665-2.524
				c0-1.585-0.708-2.916-1.874-3.554c-1.008-0.55-2.127-0.602-3.113-0.196C78.299,37.334,77.604,36.54,76.614,36.667z
				 M92.647,50.285c0.995,0.117,1.563,0.598,2.235,1.258c-0.673,0.668-1.244,1.192-2.219,1.263c-0.942,0.06-1.921-0.168-2.847-0.651
				c-0.345-0.183-0.633-0.424-0.942-0.642c0.301-0.21,0.603-0.407,0.939-0.573C90.874,50.412,91.827,50.189,92.647,50.285z
				 M73.273,43.832c0.305-0.148,0.568-0.166,0.808-0.035c0.523,0.27,0.834,1.139,0.939,1.799c0.082,0.501,0.104,1.017,0.073,1.528
				c-0.576-0.101-1.1-0.358-1.467-0.747c-0.332-0.349-0.813-1.144-0.813-1.791C72.814,44.229,72.964,43.984,73.273,43.832z
				 M75.047,60.969c0.199-0.554,0.454-1.108,0.698-1.641c0.058-0.127,0.109-0.244,0.161-0.367c-0.052,0.245-0.079,0.506-0.079,0.777
				c0,0.717,0.192,1.361,0.533,1.795c0.026,0.463,0.113,0.913,0.284,1.332c0.204,0.488,0.59,1.209,1.201,1.732
				c-0.105,0.297-0.264,0.56-0.468,0.739c-0.249,0.218-0.541,0.31-0.869,0.27c-1.581-0.204-1.816-1.736-1.816-2.633
				C74.692,62.311,74.824,61.58,75.047,60.969z M76.438,51.543c0.485-0.69,0.855-1.372,1.092-2.031
				c0.035-0.096,0.074-0.205,0.105-0.28c0.052,0.04,0.122,0.105,0.213,0.193c0.38,0.362,0.668,0.667,0.913,0.965
				c0.314,0.392,0.603,0.771,0.874,1.147c-0.438,0.633-0.883,1.205-1.354,1.694l-0.048,0.052c-0.318,0.333-0.498,0.499-0.608,0.581
				c-0.104-0.323-0.199-0.584-0.313-0.82C77.028,52.447,76.745,51.972,76.438,51.543z M76.518,47.683
				c0.03,0.777-0.114,1.516-0.445,2.127c-0.21,0.394-0.777,1.274-1.459,1.005c-0.155-0.063-0.288-0.149-0.427-0.258
				c0.956-0.761,1.326-1.848,1.467-2.721C75.933,47.827,76.229,47.77,76.518,47.683z M76.968,44.526
				c-0.188-0.266-0.293-0.633-0.323-1.031c0.114,0.376,0.258,0.743,0.424,1.105C77.036,44.565,76.998,44.556,76.968,44.526z
				 M76.482,44.889L76.482,44.889c0,0.008,0.01,0.012,0.01,0.021c0.009,0.008,0.012,0.008,0.017,0.018c0,0,0,0.004,0.009,0.008
				c0.31,0.332,0.677,0.55,1.075,0.638c0.078,0.135,0.155,0.275,0.244,0.405c-0.179,0.341-0.429,0.642-0.795,0.848
				c-0.114-0.681-0.332-1.336-0.568-1.948C76.479,44.889,76.482,44.889,76.482,44.889z M81.203,50.233
				c0.361,0.427,0.729,0.865,1.073,1.31c-0.354,0.459-0.733,0.907-1.113,1.35c-0.147-0.28-0.305-0.551-0.463-0.809
				c-0.095-0.161-0.2-0.311-0.305-0.468C80.692,51.168,80.962,50.704,81.203,50.233z M81.238,48.635
				c-0.075,0.162-0.149,0.301-0.223,0.463c-0.874-1-1.733-2.035-2.464-3.144c0.058-0.152,0.114-0.296,0.141-0.45
				c0.405-0.148,0.786-0.415,1.114-0.794c0.033-0.043,0.055-0.101,0.082-0.144c0.052,0.091,0.096,0.188,0.141,0.258
				c0.506,0.882,1.134,1.72,1.636,2.362C81.562,47.761,81.426,48.229,81.238,48.635z M79.294,42.994
				c0.067,0.026,0.124,0.078,0.176,0.139c0.017,0.244,0.065,0.48,0.131,0.699c0,0.008,0,0.021-0.005,0.035
				c-0.183,0.44-0.511,0.799-0.913,0.986c-0.009-0.097-0.025-0.197-0.044-0.306c-0.043-0.24-0.082-0.493-0.082-0.729
				c0-0.332,0.088-0.559,0.275-0.716C78.994,42.958,79.155,42.923,79.294,42.994z M78.919,58.285c0.472,0.467,0.646,0.869,0.542,1.2
				c-0.078,0.227-0.279,0.427-0.458,0.462c-0.044,0.009-0.163,0.03-0.311-0.144c-0.188-0.227-0.271-0.484-0.271-0.843
				c0-0.195,0.021-0.406,0.052-0.629c0.013-0.109,0.026-0.223,0.035-0.34C78.657,58.063,78.797,58.162,78.919,58.285z M79.884,58.56
				c-0.03-0.061-0.053-0.131-0.096-0.188c-0.345-0.476-0.785-0.826-1.271-1c0-0.005,0-0.005,0-0.005
				c-0.008-0.03-0.017-0.061-0.021-0.082c0.761-1.166,1.668-2.263,2.581-3.311c0.179,0.401,0.328,0.79,0.429,1.165
				c0.06,0.245,0.117,0.494,0.165,0.744c-0.594,0.763-1.04,1.392-1.406,1.98C80.142,58.065,80.011,58.307,79.884,58.56z
				 M77.818,57.145c-0.025,0.049-0.057,0.092-0.087,0.141c-0.484,0.03-0.942,0.226-1.35,0.633c-0.017,0.014-0.033,0.03-0.047,0.047
				c0.236-0.602,0.44-1.223,0.546-1.872C77.172,56.294,77.626,56.66,77.818,57.145z M76.806,58.358
				c0.153-0.171,0.331-0.293,0.521-0.375c-0.363,0.654-0.651,1.358-0.825,2.069C76.413,59.377,76.509,58.773,76.806,58.358z
				 M77.617,63.411c-0.209-0.342-0.358-0.712-0.462-1.092c0.397,0.336,0.729,0.654,0.82,1.184c0.019,0.104,0.009,0.218,0.009,0.326
				C77.858,63.699,77.723,63.576,77.617,63.411z M80.465,60.969c-0.253-0.113-0.402-0.353-0.402-0.671
				c0-0.231,0.014-0.511,0.092-0.766c0.128-0.422,0.302-0.811,0.511-1.152c0.315-0.511,0.687-0.994,1.044-1.458l0.101-0.145
				c0.065,0.498,0.101,1.01,0.105,1.499l0.008,0.318c0,0.733-0.065,1.764-0.576,2.222C81.094,61.039,80.749,61.1,80.465,60.969z
				 M82.15,55.28c-0.157-0.624-0.393-1.223-0.673-1.781c0.41-0.468,0.813-0.948,1.197-1.438c0.34,0.468,0.663,0.943,0.951,1.442
				c-0.296,0.348-0.595,0.693-0.882,1.052l-0.136,0.165C82.461,54.908,82.309,55.093,82.15,55.28z M83.066,51.556
				c0.358-0.476,0.69-0.964,0.992-1.475c0.406,0.476,0.799,0.959,1.184,1.458c-0.394,0.499-0.79,0.987-1.197,1.458
				C83.748,52.499,83.417,52.019,83.066,51.556z M85.647,52.094c0.127,0.169,0.267,0.335,0.38,0.511
				c0.136,0.201,0.218,0.361,0.332,0.544c-0.492,0.625-0.935,1.285-1.337,1.939c-0.165-0.502-0.38-0.986-0.619-1.453
				C84.832,53.132,85.246,52.612,85.647,52.094z M86.044,51.586c0.264-0.366,0.508-0.741,0.744-1.127
				c0.335,0.386,0.706,0.747,1.101,1.092c-0.402,0.342-0.77,0.712-1.119,1.109C86.533,52.284,86.289,51.926,86.044,51.586z
				 M85.879,50.704c-0.079,0.113-0.166,0.219-0.253,0.328c-0.218-0.28-0.44-0.555-0.655-0.808c-0.188-0.223-0.389-0.464-0.598-0.717
				c0.258-0.48,0.476-0.982,0.649-1.506c0.402,0.655,0.845,1.31,1.337,1.944C86.202,50.198,86.055,50.459,85.879,50.704z
				 M82.662,51.04c-0.381-0.476-0.774-0.938-1.166-1.396c0.27-0.611,0.489-1.236,0.645-1.86c0.105,0.131,0.211,0.266,0.315,0.393
				c0.385,0.472,0.776,0.935,1.179,1.402C83.343,50.081,83.015,50.564,82.662,51.04z M81.442,45.835l-0.047-0.065
				c-0.464-0.62-0.975-1.319-1.192-2.061c0.009-0.053,0.03-0.096,0.03-0.144c0-0.236-0.065-0.433-0.152-0.611
				c-0.005-0.026-0.014-0.061-0.014-0.088c0-0.633,0.293-0.764,0.389-0.807c0.215-0.096,0.41-0.096,0.603-0.005
				c0.358,0.171,0.585,0.629,0.672,0.97c0.201,0.759,0.241,1.585,0.133,2.589l-0.027,0.275c-0.017,0.136-0.035,0.266-0.043,0.402
				C81.67,46.141,81.557,45.984,81.442,45.835z M77.382,40.076c0.219-0.396,0.488-0.702,0.778-0.969
				c-0.021,0.333-0.114,0.751-0.445,1.105c-0.141,0.144-0.288,0.271-0.456,0.402c-0.043,0.03-0.087,0.074-0.125,0.109
				C77.194,40.496,77.27,40.277,77.382,40.076z M78.081,38.395c-0.852,0.546-1.45,1.433-1.634,2.524
				c-0.039,0.223-0.044,0.454-0.061,0.681c-0.244,0.471-0.394,1.03-0.394,1.624c0,0.245,0.026,0.481,0.07,0.704l-0.096-0.21
				c-0.507-1.104-1.197-2.624-1.197-3.947c0-0.86,0.288-1.52,0.874-2.017c0.463-0.385,1.057-0.528,1.555-0.367
				C77.636,37.527,77.949,37.889,78.081,38.395z M71.182,49.861c0.419-0.188,0.951-0.091,1.576,0.293
				c0.132,0.082,0.267,0.196,0.398,0.332c-0.157,0.071-0.333,0.123-0.516,0.166c-0.307,0.065-0.66,0.136-0.953,0.058
				c-0.174-0.049-0.72-0.31-0.829-0.524v-0.008c0-0.035,0-0.065,0.009-0.101C70.894,50.032,70.981,49.954,71.182,49.861z
				 M77.12,47.438c0.462-0.231,0.829-0.537,1.101-0.886c0.418,0.598,0.869,1.174,1.314,1.72c0.38,0.459,0.769,0.917,1.165,1.376
				c0.014,0.008,0.018,0.021,0.027,0.026c-0.236,0.472-0.489,0.918-0.743,1.323c-0.724-1.017-1.492-1.86-2.326-2.546
				c-0.084-0.069-0.198-0.092-0.302-0.053c-0.098,0.031-0.171,0.11-0.192,0.214c-0.044,0.166-0.136,0.341-0.192,0.515
				C77.112,48.591,77.164,48.019,77.12,47.438z M74.072,52.338c0.323-0.206,0.585-0.293,0.82-0.263
				c0.241,0.03,0.459,0.174,0.674,0.45c0.571,0.737,0.815,1.663,0.782,2.685c-0.269-0.078-0.546-0.122-0.831-0.125
				c-0.136-0.77-0.394-1.464-0.729-1.983C74.613,52.839,74.369,52.569,74.072,52.338z M72.823,52.338
				c0.054,0.022,0.105,0.039,0.157,0.065c-0.244,0.204-0.48,0.389-0.698,0.484c-0.323,0.13-0.839,0.354-1.16,0.184
				c-0.176-0.485-0.124-0.76,0.244-0.86l0.139-0.035C71.933,52.105,72.388,52.162,72.823,52.338z M74.946,55.765
				c0.047,0.677-0.013,1.336-0.176,1.944c-0.117,0.436-0.253,0.886-0.549,1.157c-0.236,0.221-0.604,0.326-0.896,0.27
				c-0.157-0.035-0.366-0.126-0.483-0.389c-0.119-0.253-0.175-0.511-0.175-0.764C72.667,56.875,73.807,56.006,74.946,55.765z
				 M76.281,50.622c-0.112,0.188-0.218,0.38-0.349,0.57c-0.118,0.04-0.209,0.157-0.209,0.293c0,0.053,0.035,0.149,0.068,0.188
				c0.655,0.843,1.127,1.813,1.372,2.804c0.021,0.101,0.095,0.18,0.188,0.209c0.101,0.041,0.214,0.022,0.307-0.047
				c0.891-0.722,1.689-1.577,2.374-2.512c0.274,0.424,0.524,0.834,0.73,1.232v0.009c-0.499,0.567-1.005,1.16-1.472,1.755
				c-0.311,0.389-0.695,0.883-1.079,1.44c-0.097-0.145-0.192-0.283-0.284-0.384c-0.278-0.302-0.606-0.546-0.969-0.729
				c0.004-0.136,0.013-0.276,0.013-0.41c0-1.424-0.471-2.591-1.332-3.284c-0.239-0.192-0.467-0.284-0.689-0.328
				C75.496,51.391,75.937,51.067,76.281,50.622z M82.988,61.17L82.988,61.17c0,1.267-0.576,2.909-2.214,3.371
				c-0.824,0.236-1.576,0.119-2.204-0.249c0.021-0.14,0.065-0.27,0.065-0.414c0-0.354-0.079-0.695-0.228-0.996
				c-0.215-0.424-0.563-0.729-0.904-1.03c-0.169-0.157-0.344-0.307-0.489-0.467c-0.021-0.573,0.054-1.157,0.263-1.742
				c0.158-0.437,0.362-0.847,0.571-1.254c-0.03,0.185-0.056,0.363-0.056,0.546v0.108c0.025,0.568,0.262,1.246,0.829,1.434
				c0.402,0.131,0.682,0.047,0.873-0.07c0.043,0.323,0.141,0.625,0.336,0.886c0.259,0.332,0.616,0.486,1.019,0.429
				c0.536-0.078,1.108-0.542,1.318-1.083c0.184-0.433,0.271-0.926,0.314-1.454C82.797,59.766,82.988,60.455,82.988,61.17z
				 M82.176,42.452c-0.183-0.441-0.658-0.957-1.235-1.075c-0.37-0.079-0.712,0.022-0.979,0.293
				c-0.218,0.213-0.335,0.479-0.419,0.772c-0.064-0.031-0.122-0.07-0.195-0.092c-0.421-0.118-0.891,0.162-1.101,0.502
				c-0.179,0.292-0.263,0.593-0.263,0.956c0,0.201,0.026,0.406,0.054,0.602c0.025,0.183,0.052,0.376,0.055,0.594
				c-0.043,0-0.082-0.021-0.122-0.021c-0.213-0.398-0.418-0.795-0.579-1.223c-0.258-0.685-0.385-1.332-0.398-1.93
				c0.171-0.279,0.394-0.511,0.687-0.75c0.794-0.66,1.179-1.577,1.073-2.411c0.541-0.284,1.148-0.358,1.773-0.191
				c1.502,0.401,2.467,1.759,2.467,3.466c0,0.698-0.188,1.372-0.511,1.974C82.438,43.386,82.352,42.888,82.176,42.452z"/>
			<radialGradient id="SVGID_2_" cx="47.6572" cy="35.4209" r="84.9268" gradientUnits="userSpaceOnUse">
				<stop  offset="0.0303" style="stop-color:#F28AB8"/>
				<stop  offset="0.2667" style="stop-color:#ED4F9B"/>
				<stop  offset="0.5515" style="stop-color:#EB008B"/>
				<stop  offset="1" style="stop-color:#7C003A"/>
			</radialGradient>
			<path fill="url(#SVGID_2_)" d="M23.229,66.218c0.857-0.109,1.621-0.668,2.006-1.449c0.28-0.572,0.418-1.165,0.418-1.821
				c0-1.34-0.596-2.654-1.174-3.921c-0.314-0.694-0.616-1.353-0.811-1.999c-0.135-0.433-0.224-0.826-0.283-1.206
				c0.234-0.065,0.484-0.101,0.737-0.104c-0.003,0.078-0.007,0.152-0.007,0.23v0.158c0,2.078,0.558,3.301,1.658,3.637
				c0.417,0.126,0.814,0.069,1.139-0.179c0.415-0.307,0.687-0.899,0.687-1.521c0-0.18-0.025-0.354-0.069-0.515
				c-0.352-1.205-1.489-2.214-2.706-2.441c0.132-0.785,0.464-1.741,1.274-2.35c0.109,0.11,0.229,0.215,0.362,0.312
				c0.477,0.34,1.718,0.878,2.446,0.571c0.278-0.117,0.458-0.354,0.514-0.677c0.025-0.062,0.035-0.122,0.035-0.188
				c0-0.019-0.01-0.073-0.02-0.122c-0.023-0.695-0.841-1.005-1.318-1.084c-0.777-0.117-1.572,0.241-1.875,0.398
				c-0.005,0.004-0.015,0.004-0.02,0.004c-0.235-0.204-0.498-0.389-0.816-0.462c-0.08-0.019-0.156-0.019-0.234-0.022
				c0.466-0.031,0.868-0.31,1.156-0.542c0.826,0.472,1.666,0.594,2.329,0.328c0.491-0.192,1.077-0.668,0.939-1.231
				c-0.122-0.547-0.643-0.922-1.206-0.875c-0.713,0.062-1.438,0.38-1.946,0.848c-0.057,0.048-0.112,0.101-0.169,0.152
				c-0.558-0.397-0.933-0.943-1.139-1.663c-0.067-0.236-0.122-0.48-0.161-0.721c1.015-0.157,1.882-0.755,2.393-1.659
				c0.147-0.271,0.398-0.804,0.398-1.402c0-0.402-0.112-0.751-0.338-1.026c-0.258-0.323-0.661-0.533-1.078-0.568
				c-0.384-0.026-0.744,0.088-1.015,0.341c-0.725,0.664-1.122,1.772-1.122,3.131c0,0.201,0.009,0.397,0.029,0.603
				c-0.243-0.005-0.479-0.035-0.695-0.1c0.121-0.795,0.394-1.668,0.834-2.651c0.091-0.196,0.185-0.396,0.28-0.606
				c0.548-1.175,1.166-2.511,1.166-3.856c0-0.327-0.039-0.646-0.11-0.952c-0.265-1.052-1.244-2.615-2.736-2.336
				c-0.665,0.127-1.197,0.616-1.499,1.25c-0.186-0.101-0.378-0.184-0.593-0.232c-1.097-0.267-2.219-0.026-3.169,0.664
				c-0.945,0.694-1.488,1.895-1.488,3.292c0,0.925,0.242,1.825,0.676,2.542c0.075,0.113,0.212,0.166,0.342,0.13
				c0.023-0.004,0.04-0.026,0.057-0.039c0,0.013,0,0.021,0,0.039c0,0.751,0.103,1.506,0.204,2.24l0.021,0.184
				c-0.496,0.634-1.042,1.267-1.571,1.882c-0.034,0.039-0.062,0.074-0.09,0.109c-0.265-0.528-0.483-1.074-0.64-1.65
				c0.245-0.424,0.523-0.947,0.53-1.476c0-0.183-0.02-0.441-0.19-0.607c-0.089-0.092-0.209-0.14-0.344-0.136
				c-0.378,0.004-0.649,0.428-0.708,0.712c-0.038,0.166-0.054,0.345-0.054,0.528c0,0.315,0.054,0.615,0.113,0.891
				c-0.438,0.747-0.903,1.489-1.423,2.183c-0.259-0.463-0.471-0.899-0.622-1.327l-0.053-0.14c-0.117-0.319-0.238-0.646-0.239-0.965
				c-0.018-0.153,0.006-0.311,0.069-0.455c0.07-0.04,0.13-0.065,0.179-0.087c-0.065,0.13-0.024,0.306,0.087,0.388
				c0.082,0.057,0.177,0.075,0.271,0.049c0.216-0.075,0.349-0.275,0.349-0.528c0-0.223-0.099-0.446-0.251-0.577
				c-0.118-0.095-0.262-0.14-0.409-0.113c-0.581,0.101-0.906,0.519-0.906,1.187c0,0.568,0.229,1.227,0.416,1.682
				c0.205,0.489,0.447,0.952,0.701,1.396c-0.38,0.455-0.791,0.881-1.238,1.262c-0.533-0.405-1.111-0.756-1.759-1.03
				c-0.611-0.262-1.814-0.664-3.018-0.397c-1.069,0.231-1.653,0.816-2.325,1.489l-0.1,0.101c-0.005,0.003-0.014,0.021-0.02,0.035
				c-0.009,0.009-0.015,0.025-0.024,0.044c-0.023,0.047-0.048,0.1-0.048,0.139l0,0l0,0c0,0.035,0.024,0.087,0.043,0.131
				c0.011,0.019,0.02,0.035,0.035,0.054c0,0.008,0.008,0.021,0.014,0.024l0.045,0.054c0.771,0.768,1.38,1.378,2.572,1.571
				c0.849,0.144,1.852-0.009,2.825-0.433c0.635-0.271,1.213-0.616,1.735-1.013c0.451,0.375,0.858,0.795,1.232,1.23
				c-0.297,0.538-0.557,1.084-0.766,1.665c-0.087,0.253-0.304,0.916-0.304,1.497c0,0.717,0.348,1.13,0.951,1.13
				c0.361,0,0.604-0.366,0.604-0.701c0-0.255-0.133-0.451-0.354-0.516c-0.092-0.03-0.19-0.018-0.267,0.038
				c-0.117,0.089-0.157,0.267-0.094,0.385c-0.046-0.018-0.096-0.04-0.159-0.07l-0.092-0.305v-0.065c0-0.135,0.016-0.271,0.049-0.401
				c0.084-0.351,0.196-0.69,0.332-1.019c0.155-0.366,0.332-0.725,0.524-1.073c0.537,0.703,1.019,1.437,1.435,2.157
				c-0.061,0.274-0.131,0.593-0.131,0.907c0,0.228,0.035,0.424,0.107,0.598c0.072,0.18,0.28,0.616,0.677,0.622
				c0.135,0,0.257-0.049,0.35-0.136c0.124-0.123,0.181-0.311,0.181-0.564c0-0.052-0.002-0.104-0.002-0.145
				c-0.043-0.483-0.279-0.935-0.523-1.375c0.166-0.594,0.39-1.156,0.663-1.697c0.521,0.633,1.083,1.326,1.645,2.034
				c-0.011,0.057-0.018,0.109-0.021,0.157l-0.011,0.079c-0.096,0.715-0.199,1.462-0.199,2.2c0,0.017,0.007,0.035,0.007,0.047
				c-0.024-0.012-0.043-0.038-0.074-0.047c-0.134-0.035-0.269,0.017-0.341,0.136c-0.426,0.72-0.662,1.614-0.662,2.523
				c0,1.59,0.701,2.916,1.869,3.554c1.005,0.55,2.126,0.604,3.112,0.201C21.546,65.55,22.237,66.345,23.229,66.218z M7.192,52.6
				c-0.993-0.117-1.558-0.598-2.229-1.258c0.668-0.672,1.24-1.192,2.218-1.261c0.939-0.057,1.923,0.166,2.841,0.655
				c0.345,0.175,0.635,0.419,0.94,0.637c-0.295,0.209-0.601,0.407-0.935,0.572C8.97,52.472,8.014,52.695,7.192,52.6z M26.568,59.057
				c-0.305,0.145-0.569,0.162-0.807,0.03c-0.524-0.27-0.832-1.139-0.936-1.799c-0.082-0.497-0.104-1.013-0.079-1.527
				c0.584,0.101,1.1,0.362,1.47,0.747c0.336,0.354,0.809,1.147,0.809,1.79C27.025,58.655,26.875,58.904,26.568,59.057z
				 M24.796,41.915c-0.201,0.555-0.454,1.109-0.697,1.646c-0.057,0.122-0.109,0.244-0.164,0.361
				c0.048-0.239,0.079-0.506,0.079-0.777c0-0.716-0.194-1.358-0.527-1.794c-0.032-0.463-0.114-0.913-0.29-1.332
				c-0.203-0.484-0.589-1.209-1.201-1.733c0.107-0.292,0.266-0.559,0.467-0.738c0.25-0.218,0.539-0.31,0.869-0.266
				c1.581,0.201,1.817,1.733,1.817,2.628C25.149,40.575,25.022,41.304,24.796,41.915z M23.404,51.342
				c-0.484,0.689-0.859,1.371-1.092,2.026c-0.033,0.096-0.074,0.209-0.105,0.283c-0.05-0.039-0.121-0.101-0.214-0.191
				c-0.378-0.363-0.668-0.668-0.911-0.966c-0.32-0.393-0.605-0.772-0.873-1.145c0.432-0.633,0.877-1.208,1.348-1.693l0.05-0.057
				c0.317-0.332,0.501-0.497,0.608-0.58c0.104,0.323,0.203,0.585,0.317,0.82C22.813,50.438,23.1,50.91,23.404,51.342z
				 M23.324,55.202c-0.03-0.777,0.114-1.516,0.445-2.127c0.214-0.392,0.777-1.274,1.46-1.005c0.156,0.062,0.288,0.154,0.423,0.255
				c-0.954,0.763-1.324,1.85-1.462,2.725C23.912,55.058,23.617,55.114,23.324,55.202z M22.875,58.363
				c0.188,0.262,0.292,0.628,0.321,1.025c-0.109-0.375-0.259-0.742-0.422-1.104C22.805,58.32,22.842,58.328,22.875,58.363z
				 M23.361,57.997L23.361,57.997c-0.001-0.011-0.006-0.019-0.013-0.022c-0.003-0.005-0.008-0.01-0.015-0.018c0,0,0,0-0.001-0.009
				c-0.315-0.332-0.684-0.546-1.077-0.638c-0.08-0.136-0.159-0.275-0.246-0.405c0.179-0.342,0.425-0.642,0.792-0.848
				c0.114,0.685,0.332,1.336,0.573,1.947C23.366,57.997,23.361,57.997,23.361,57.997z M18.639,52.651
				c-0.364-0.427-0.725-0.859-1.074-1.305c0.36-0.464,0.733-0.913,1.109-1.354c0.152,0.276,0.313,0.551,0.465,0.809
				c0.102,0.161,0.208,0.31,0.31,0.467C19.147,51.714,18.881,52.181,18.639,52.651z M18.605,54.251
				c0.069-0.163,0.151-0.302,0.221-0.464c0.876,1.004,1.735,2.034,2.463,3.147c-0.057,0.145-0.111,0.294-0.136,0.446
				c-0.41,0.148-0.792,0.418-1.117,0.795c-0.033,0.044-0.05,0.101-0.085,0.147c-0.049-0.096-0.096-0.188-0.136-0.261
				c-0.509-0.883-1.136-1.722-1.637-2.363C18.282,55.118,18.416,54.656,18.605,54.251z M20.544,59.896
				c-0.062-0.03-0.119-0.083-0.171-0.141c-0.019-0.248-0.062-0.479-0.132-0.701c0.003-0.011,0-0.022,0.007-0.032
				c0.181-0.448,0.514-0.799,0.911-0.994c0.014,0.1,0.029,0.204,0.045,0.305c0.04,0.244,0.081,0.499,0.081,0.733
				c0,0.333-0.083,0.559-0.27,0.722C20.851,59.926,20.69,59.961,20.544,59.896z M20.923,44.601
				c-0.472-0.467-0.646-0.869-0.541-1.197c0.082-0.232,0.283-0.428,0.46-0.463c0.039-0.013,0.161-0.031,0.305,0.14
				c0.191,0.231,0.278,0.489,0.278,0.842c0,0.201-0.029,0.406-0.052,0.625c-0.018,0.114-0.032,0.227-0.042,0.345
				C21.188,44.823,21.047,44.723,20.923,44.601z M19.958,44.325c0.032,0.065,0.054,0.135,0.096,0.192
				c0.343,0.476,0.789,0.82,1.271,0.995c0.005,0,0.005,0.009,0.005,0.009c0.002,0.026,0.01,0.057,0.019,0.079
				c-0.764,1.17-1.669,2.257-2.577,3.31c-0.183-0.402-0.33-0.795-0.431-1.167c-0.063-0.245-0.121-0.493-0.171-0.742
				c0.596-0.765,1.042-1.394,1.409-1.983C19.702,44.818,19.829,44.579,19.958,44.325z M22.021,45.744
				c0.028-0.048,0.059-0.096,0.088-0.144c0.482-0.031,0.948-0.223,1.352-0.633c0.015-0.018,0.034-0.031,0.043-0.049
				c-0.234,0.603-0.435,1.228-0.542,1.873C22.665,46.596,22.219,46.22,22.021,45.744z M23.038,44.53
				c-0.154,0.166-0.332,0.288-0.517,0.371c0.356-0.655,0.651-1.353,0.824-2.069C23.431,43.504,23.333,44.116,23.038,44.53z
				 M22.224,39.475c0.216,0.344,0.358,0.716,0.46,1.091c-0.396-0.336-0.725-0.655-0.815-1.183c-0.021-0.104-0.014-0.213-0.01-0.328
				C21.984,39.186,22.118,39.308,22.224,39.475z M19.379,41.915c0.258,0.113,0.402,0.354,0.402,0.672
				c-0.003,0.235-0.015,0.511-0.092,0.764c-0.13,0.424-0.3,0.813-0.512,1.153c-0.315,0.511-0.684,0.995-1.042,1.462l-0.104,0.14
				c-0.063-0.499-0.098-1.009-0.104-1.494V44.29c0-0.738,0.059-1.764,0.569-2.223C18.746,41.845,19.094,41.788,19.379,41.915z
				 M17.69,47.604c0.156,0.625,0.397,1.218,0.67,1.782c-0.404,0.467-0.804,0.948-1.19,1.437c-0.345-0.467-0.666-0.942-0.952-1.441
				c0.295-0.349,0.592-0.694,0.88-1.052l0.138-0.166C17.386,47.976,17.539,47.792,17.69,47.604z M16.777,51.328
				c-0.356,0.476-0.693,0.965-0.994,1.478c-0.403-0.48-0.796-0.962-1.179-1.456c0.388-0.502,0.784-0.991,1.189-1.461
				C16.094,50.386,16.425,50.861,16.777,51.328z M14.192,50.792c-0.125-0.17-0.265-0.333-0.38-0.512
				c-0.13-0.199-0.218-0.361-0.33-0.541c0.494-0.629,0.935-1.288,1.334-1.943c0.172,0.502,0.382,0.992,0.625,1.454
				C15.013,49.752,14.599,50.268,14.192,50.792z M13.801,51.298c-0.269,0.367-0.509,0.742-0.743,1.131
				c-0.34-0.389-0.712-0.75-1.108-1.092c0.403-0.345,0.779-0.715,1.125-1.112C13.31,50.6,13.553,50.958,13.801,51.298z
				 M13.967,52.181c0.074-0.114,0.166-0.22,0.249-0.328c0.221,0.279,0.444,0.555,0.653,0.808c0.19,0.223,0.391,0.463,0.6,0.716
				c-0.255,0.486-0.474,0.983-0.653,1.508c-0.399-0.655-0.836-1.312-1.334-1.939C13.637,52.687,13.791,52.429,13.967,52.181z
				 M17.181,51.844c0.382,0.476,0.775,0.939,1.168,1.397c-0.273,0.616-0.496,1.24-0.646,1.86c-0.104-0.131-0.209-0.262-0.314-0.394
				c-0.384-0.471-0.782-0.938-1.177-1.402C16.504,52.806,16.829,52.319,17.181,51.844z M18.401,57.049l0.048,0.065
				c0.462,0.619,0.971,1.317,1.188,2.062c-0.007,0.052-0.025,0.101-0.025,0.147c0,0.232,0.062,0.429,0.152,0.607
				c0.002,0.025,0.01,0.061,0.01,0.091c0,0.63-0.29,0.76-0.385,0.804c-0.218,0.097-0.414,0.097-0.603,0.009
				c-0.358-0.175-0.588-0.634-0.675-0.974c-0.197-0.755-0.24-1.584-0.129-2.589l0.029-0.274c0.015-0.136,0.03-0.267,0.043-0.402
				C18.169,56.742,18.287,56.899,18.401,57.049z M22.462,62.813c-0.218,0.393-0.491,0.699-0.777,0.965
				c0.02-0.331,0.112-0.752,0.444-1.105c0.137-0.144,0.29-0.266,0.456-0.401c0.042-0.035,0.081-0.068,0.124-0.109
				C22.647,62.39,22.569,62.612,22.462,62.813z M21.758,64.484c0.854-0.546,1.456-1.427,1.638-2.519
				c0.037-0.228,0.049-0.45,0.057-0.682c0.25-0.468,0.397-1.03,0.397-1.619c0-0.245-0.023-0.481-0.072-0.709l0.097,0.21
				c0.501,1.11,1.194,2.62,1.194,3.946c0,0.861-0.285,1.521-0.871,2.019c-0.457,0.389-1.055,0.529-1.556,0.366
				C22.207,65.358,21.897,64.995,21.758,64.484z M28.658,53.023c-0.417,0.188-0.948,0.092-1.574-0.293
				c-0.13-0.082-0.264-0.196-0.396-0.332c0.161-0.065,0.333-0.122,0.517-0.161c0.305-0.07,0.658-0.141,0.953-0.062
				c0.172,0.049,0.717,0.31,0.822,0.524v0.008c0,0.035,0,0.065,0,0.101C28.948,52.853,28.866,52.931,28.658,53.023z M22.725,55.446
				c-0.462,0.231-0.827,0.541-1.104,0.891c-0.417-0.603-0.866-1.179-1.314-1.725c-0.375-0.454-0.767-0.913-1.167-1.375
				c-0.008-0.014-0.015-0.019-0.023-0.026c0.241-0.473,0.491-0.913,0.74-1.323c0.724,1.021,1.492,1.86,2.33,2.546
				c0.083,0.07,0.201,0.092,0.3,0.057c0.099-0.035,0.17-0.114,0.196-0.218c0.04-0.166,0.13-0.342,0.184-0.516
				C22.731,54.294,22.681,54.865,22.725,55.446z M25.768,50.548c-0.322,0.204-0.58,0.291-0.819,0.262
				c-0.238-0.027-0.456-0.175-0.67-0.451c-0.573-0.737-0.817-1.663-0.784-2.685c0.27,0.079,0.547,0.122,0.834,0.13
				c0.132,0.76,0.392,1.459,0.729,1.983C25.23,50.045,25.478,50.315,25.768,50.548z M27.02,50.548
				c-0.054-0.021-0.107-0.04-0.152-0.067c0.24-0.204,0.474-0.389,0.697-0.484c0.316-0.131,0.837-0.354,1.16-0.184
				c0.166,0.485,0.119,0.76-0.246,0.86l-0.139,0.04C27.911,50.779,27.456,50.722,27.02,50.548z M24.896,47.12
				c-0.048-0.678,0.014-1.333,0.174-1.939c0.117-0.44,0.26-0.891,0.553-1.161c0.236-0.223,0.6-0.328,0.894-0.267
				c0.156,0.03,0.367,0.123,0.486,0.384c0.117,0.253,0.174,0.511,0.174,0.764C27.178,46.011,26.035,46.88,24.896,47.12z
				 M23.56,52.263c0.114-0.183,0.218-0.375,0.347-0.567c0.124-0.044,0.209-0.161,0.209-0.297c0-0.049-0.037-0.148-0.065-0.188
				c-0.655-0.847-1.13-1.812-1.37-2.803c-0.025-0.101-0.097-0.179-0.191-0.209c-0.099-0.039-0.211-0.018-0.305,0.048
				c-0.889,0.72-1.69,1.576-2.376,2.515c-0.276-0.427-0.524-0.837-0.729-1.235l0.002-0.009c0.496-0.568,1.004-1.162,1.472-1.755
				c0.305-0.388,0.69-0.881,1.079-1.445c0.094,0.148,0.189,0.288,0.283,0.385c0.281,0.305,0.604,0.55,0.969,0.733
				c-0.008,0.135-0.015,0.275-0.015,0.41c0,1.423,0.474,2.59,1.332,3.283c0.238,0.198,0.469,0.285,0.69,0.329
				C24.349,51.494,23.904,51.817,23.56,52.263z M16.851,41.714L16.851,41.714c0-1.267,0.584-2.904,2.217-3.367
				c0.825-0.235,1.577-0.122,2.207,0.245c-0.022,0.14-0.067,0.271-0.067,0.416c0,0.353,0.077,0.694,0.228,0.996
				c0.214,0.423,0.564,0.733,0.901,1.03c0.176,0.157,0.347,0.31,0.493,0.471c0.02,0.568-0.054,1.149-0.267,1.743
				c-0.152,0.437-0.358,0.842-0.569,1.253c0.029-0.184,0.057-0.367,0.057-0.55l-0.003-0.109c-0.025-0.568-0.256-1.24-0.827-1.428
				c-0.397-0.131-0.683-0.048-0.869,0.065c-0.045-0.323-0.141-0.629-0.338-0.886c-0.26-0.332-0.618-0.48-1.017-0.428
				c-0.539,0.074-1.109,0.541-1.325,1.083c-0.177,0.437-0.267,0.925-0.314,1.459C17.043,43.124,16.851,42.43,16.851,41.714z
				 M17.667,60.434c0.179,0.44,0.658,0.956,1.236,1.078c0.372,0.074,0.71-0.031,0.976-0.298c0.218-0.213,0.343-0.476,0.418-0.772
				c0.064,0.03,0.126,0.069,0.198,0.093c0.42,0.117,0.889-0.163,1.1-0.499c0.178-0.297,0.263-0.599,0.263-0.957
				c0-0.204-0.028-0.41-0.054-0.603c-0.021-0.188-0.047-0.375-0.055-0.593c0.043-0.005,0.081,0.017,0.121,0.017
				c0.216,0.398,0.418,0.799,0.578,1.223c0.26,0.687,0.392,1.333,0.4,1.935c-0.167,0.276-0.39,0.507-0.685,0.752
				c-0.8,0.654-1.184,1.567-1.073,2.406c-0.54,0.288-1.147,0.356-1.77,0.19c-1.5-0.396-2.47-1.755-2.47-3.461
				c0-0.7,0.184-1.377,0.507-1.978C17.403,59.502,17.493,59.996,17.667,60.434z"/>
		</g>
		<g>
			<g>
				<radialGradient id="SVGID_3_" cx="47.6533" cy="35.4194" r="84.917" gradientUnits="userSpaceOnUse">
					<stop  offset="0.0303" style="stop-color:#F28AB8"/>
					<stop  offset="0.2667" style="stop-color:#ED4F9B"/>
					<stop  offset="0.5515" style="stop-color:#EB008B"/>
					<stop  offset="1" style="stop-color:#7C003A"/>
				</radialGradient>
				<path fill="url(#SVGID_3_)" d="M23.713,37.334c5.037-9.313,14.896-15.662,26.205-15.662c11.314,0,21.169,6.344,26.203,15.662
					c0.288-0.161,0.616-0.223,0.948-0.152c-5.145-9.759-15.37-16.426-27.151-16.426c-11.729,0-21.943,6.62-27.104,16.326
					C23.172,36.967,23.49,37.094,23.713,37.334z"/>
				<radialGradient id="SVGID_4_" cx="47.6548" cy="35.4224" r="84.9188" gradientUnits="userSpaceOnUse">
					<stop  offset="0.0303" style="stop-color:#F28AB8"/>
					<stop  offset="0.2667" style="stop-color:#ED4F9B"/>
					<stop  offset="0.5515" style="stop-color:#EB008B"/>
					<stop  offset="1" style="stop-color:#7C003A"/>
				</radialGradient>
				<path fill="url(#SVGID_4_)" d="M76.047,65.693c-5.065,9.235-14.872,15.514-26.129,15.514c-11.382,0-21.29-6.427-26.292-15.846
					c-0.239,0.215-0.569,0.337-0.894,0.288c5.131,9.79,15.393,16.48,27.186,16.48c11.754,0,21.971-6.646,27.125-16.375
					C76.71,65.848,76.36,65.82,76.047,65.693z"/>
			</g>
			<g>
				<radialGradient id="SVGID_5_" cx="47.6563" cy="35.4238" r="84.9229" gradientUnits="userSpaceOnUse">
					<stop  offset="0.0303" style="stop-color:#F28AB8"/>
					<stop  offset="0.2667" style="stop-color:#ED4F9B"/>
					<stop  offset="0.5515" style="stop-color:#EB008B"/>
					<stop  offset="1" style="stop-color:#7C003A"/>
				</radialGradient>
				<path fill="url(#SVGID_5_)" d="M29.37,50.146c0.676-10.764,9.621-19.322,20.548-19.322c10.912,0,19.841,8.515,20.547,19.238
					c0.176-0.371,0.517-0.598,0.892-0.694C70.31,38.461,61.096,29.907,49.917,29.907c-11.224,0-20.461,8.637-21.437,19.618
					C28.851,49.599,29.174,49.805,29.37,50.146z"/>
				<radialGradient id="SVGID_6_" cx="47.6538" cy="35.4263" r="84.9154" gradientUnits="userSpaceOnUse">
					<stop  offset="0.0303" style="stop-color:#F28AB8"/>
					<stop  offset="0.2667" style="stop-color:#ED4F9B"/>
					<stop  offset="0.5515" style="stop-color:#EB008B"/>
					<stop  offset="1" style="stop-color:#7C003A"/>
				</radialGradient>
				<path fill="url(#SVGID_6_)" d="M71.326,53.395c-0.345-0.07-0.655-0.254-0.861-0.556c-0.72,10.716-9.644,19.222-20.547,19.222
					c-10.924,0-19.858-8.555-20.54-19.309c-0.136,0.437-0.447,0.729-0.841,0.853c1.094,10.854,10.242,19.372,21.38,19.377
					C61.134,72.981,70.331,64.354,71.326,53.395z"/>
			</g>
		</g>
	</g>
	<g>
		<radialGradient id="SVGID_7_" cx="49.4521" cy="51.3105" r="10.1599" gradientUnits="userSpaceOnUse">
			<stop  offset="0.0303" style="stop-color:#F28AB8"/>
			<stop  offset="0.2667" style="stop-color:#ED4F9B"/>
			<stop  offset="0.5515" style="stop-color:#EB008B"/>
			<stop  offset="1" style="stop-color:#7C003A"/>
		</radialGradient>
		<path fill-rule="evenodd" clip-rule="evenodd" fill="url(#SVGID_7_)" d="M59.184,54.311l2.531-5.881l-3.526,0.83
			c0.104,2.973-3.681,2.389-3.148,0.279c0.126-0.515,0.457-0.991,0.733-1.17l-1.17-1.829l-1.742,1.227
			c0.419,0.816-0.045,2.772-1.441,2.153c-1.302-0.611-0.302-2.65,0.394-3.956l-2.358-2.14l-2.363,2.14
			c0.695,1.305,1.695,3.344,0.397,3.956c-1.4,0.62-1.859-1.336-1.445-2.153l-1.742-1.227l-1.17,1.829
			c0.271,0.179,0.611,0.655,0.744,1.17c0.522,2.11-3.268,2.694-3.159-0.279l-3.527-0.83l2.534,5.881h-0.37v1.438h20.125v-1.438
			H59.184L59.184,54.311z M53.764,56.652c0.433,0,0.782,0.375,0.782,0.834c0,0.467-0.35,0.851-0.782,0.851
			c-0.432,0-0.78-0.384-0.78-0.851C52.983,57.027,53.332,56.652,53.764,56.652L53.764,56.652z M56.633,56.652
			c0.432,0,0.782,0.375,0.782,0.834c0,0.467-0.351,0.851-0.782,0.851c-0.436,0-0.785-0.384-0.785-0.851
			C55.848,57.027,56.197,56.652,56.633,56.652L56.633,56.652z M42.643,56.652c0.429,0,0.777,0.375,0.777,0.834
			c0,0.467-0.349,0.851-0.777,0.851c-0.435,0-0.785-0.384-0.785-0.851C41.857,57.027,42.208,56.652,42.643,56.652L42.643,56.652z
			 M45.508,56.652c0.432,0,0.777,0.375,0.777,0.834c0,0.467-0.345,0.851-0.777,0.851c-0.432,0-0.782-0.384-0.782-0.851
			C44.726,57.027,45.076,56.652,45.508,56.652L45.508,56.652z M49.722,56.185c0.668,0,1.204,0.585,1.204,1.302
			c0,0.72-0.536,1.313-1.204,1.313c-0.668,0-1.206-0.593-1.206-1.313C48.516,56.77,49.053,56.185,49.722,56.185L49.722,56.185z"/>
	</g>
</g>
</svg>
