<?xml version="1.0" encoding="iso-8859-1"?>
<!-- Generator: Adobe Illustrator 13.0.0, SVG Export Plug-In . SVG Version: 6.00 Build 14948)  -->
<!DOCTYPE svg PUBLIC "-//W3C//DTD SVG 1.1//EN" "http://www.w3.org/Graphics/SVG/1.1/DTD/svg11.dtd">
<svg version="1.1" id="Layer_1" xmlns="http://www.w3.org/2000/svg" xmlns:xlink="http://www.w3.org/1999/xlink" x="0px" y="0px"
	 width="100px" height="100px" viewBox="0 0 100 100" enable-background="new 0 0 100 100" xml:space="preserve">
<g>
	<radialGradient id="SVGID_1_" cx="50.1826" cy="4.1191" r="120.8963" gradientUnits="userSpaceOnUse">
		<stop  offset="0" style="stop-color:#00ABEB"/>
		<stop  offset="0.029" style="stop-color:#22AAE7"/>
		<stop  offset="0.0603" style="stop-color:#3FA8E3"/>
		<stop  offset="0.0914" style="stop-color:#53A8E0"/>
		<stop  offset="0.122" style="stop-color:#60A7DF"/>
		<stop  offset="0.1515" style="stop-color:#64A7DE"/>
		<stop  offset="0.3273" style="stop-color:#4674B7"/>
		<stop  offset="0.5212" style="stop-color:#333B8B"/>
		<stop  offset="0.7576" style="stop-color:#211C51"/>
		<stop  offset="1" style="stop-color:#171043"/>
	</radialGradient>
	<path fill="url(#SVGID_1_)" d="M50.123,13.418c0,0,12.271,5.798,12.271,24.805c0,0,8.414-3.853,20.26-3.581
		c0,0-33.075,4.965-30.875,42.182h-3.301c0,0,6.201-33.631-31.018-41.904c0,0,10.615-1.242,20.26,3.858
		C37.721,38.779,35.89,21.461,50.123,13.418z"/>
	<path fill="#FFFFFF" d="M57.164,41.52c0,3.841-3.105,6.958-6.953,6.958c-3.836,0-6.954-3.117-6.954-6.958s3.117-6.948,6.954-6.948
		C54.059,34.572,57.164,37.679,57.164,41.52z"/>
	<radialGradient id="SVGID_2_" cx="50.2188" cy="28.5439" r="86.1302" gradientUnits="userSpaceOnUse">
		<stop  offset="0.1212" style="stop-color:#D7DD3F"/>
		<stop  offset="0.4545" style="stop-color:#9DC44D"/>
		<stop  offset="0.7455" style="stop-color:#51924B"/>
		<stop  offset="1" style="stop-color:#1E4324"/>
	</radialGradient>
	<path fill="url(#SVGID_2_)" d="M57.043,73.73c0,0-3.139-33.011,36.271-39.034c0,0,2.955,32.163-34.318,41.579
		c0,0,17.828-16.113,25.031-31.535C84.027,44.741,68.096,65.143,57.043,73.73z"/>
	<radialGradient id="SVGID_3_" cx="50.229" cy="28.5439" r="86.1303" gradientUnits="userSpaceOnUse">
		<stop  offset="0.1212" style="stop-color:#D7DD3F"/>
		<stop  offset="0.4545" style="stop-color:#9DC44D"/>
		<stop  offset="0.7455" style="stop-color:#51924B"/>
		<stop  offset="1" style="stop-color:#1E4324"/>
	</radialGradient>
	<path fill="url(#SVGID_3_)" d="M43.607,73.73c0,0,3.139-33.011-36.271-39.034c0,0-2.953,32.163,34.319,41.579
		c0,0-17.831-16.113-25.034-31.535C16.622,44.741,32.555,65.143,43.607,73.73z"/>
	<radialGradient id="SVGID_4_" cx="50.2227" cy="28.5688" r="86.0959" gradientUnits="userSpaceOnUse">
		<stop  offset="0.1212" style="stop-color:#D7DD3F"/>
		<stop  offset="0.4545" style="stop-color:#9DC44D"/>
		<stop  offset="0.7455" style="stop-color:#51924B"/>
		<stop  offset="1" style="stop-color:#1E4324"/>
	</radialGradient>
	<path fill="url(#SVGID_4_)" d="M70.842,73.502c1.395,0.604,2.169,1.275,2.169,1.994c0,2.584-10.233,4.682-22.866,4.682
		c-12.643,0-22.876-2.098-22.876-4.682c0-0.758,0.872-1.467,2.42-2.092c-4.491,0.941-7.237,2.201-7.237,3.586
		c0,2.932,12.349,5.312,27.584,5.312c15.226,0,27.574-2.381,27.574-5.312C77.609,75.654,75.059,74.434,70.842,73.502z"/>
</g>
</svg>
